<svg width="30" height="31" viewBox="0 0 30 31" fill="none" xmlns="http://www.w3.org/2000/svg">
<path d="M20.7869 17.8636L21.3563 17.2975L20.0342 15.9679L19.4649 16.534L20.7869 17.8636ZM23.2683 17.0604L25.6564 18.3586L26.5519 16.7114L24.1638 15.4131L23.2683 17.0604ZM26.1162 20.9389L24.3404 22.7045L25.6624 24.0341L27.4382 22.2685L26.1162 20.9389ZM23.2584 23.273C21.4461 23.4419 16.7571 23.2914 11.6803 18.2434L10.3582 19.573C15.8983 25.0816 21.1712 25.3506 23.4324 25.1399L23.2584 23.273ZM11.6803 18.2434C6.84106 13.4316 6.03945 9.38457 5.93966 7.62882L4.06769 7.7352C4.19326 9.94499 5.18585 14.43 10.3582 19.573L11.6803 18.2434ZM13.3994 10.518L13.7579 10.1615L12.4359 8.83194L12.0774 9.18842L13.3994 10.518ZM14.0433 5.61752L12.4671 3.51202L10.9661 4.63569L12.5423 6.7412L14.0433 5.61752ZM7.16585 3.05374L5.20385 5.0046L6.5259 6.3342L8.4879 4.38334L7.16585 3.05374ZM12.7384 9.85322C12.0774 9.18842 12.0765 9.1893 12.0756 9.1902C12.0753 9.1905 12.0744 9.19142 12.0738 9.19203C12.0726 9.19327 12.0713 9.19452 12.0701 9.1958C12.0675 9.19839 12.0649 9.20108 12.0622 9.20388C12.0568 9.20949 12.0511 9.21557 12.045 9.22212C12.033 9.2352 12.0197 9.25018 12.0056 9.26709C11.9772 9.3009 11.9451 9.34254 11.9114 9.39235C11.8437 9.49222 11.77 9.62425 11.7074 9.7903C11.5798 10.1291 11.5113 10.5758 11.5971 11.1288C11.7649 12.2104 12.5098 13.6391 14.4179 15.5364L15.7399 14.2068C13.9543 12.4312 13.5289 11.3507 13.4499 10.8414C13.4123 10.599 13.4513 10.4796 13.4621 10.4514C13.4686 10.4339 13.4717 10.4321 13.4637 10.4441C13.4597 10.4499 13.4531 10.459 13.4427 10.4714C13.4376 10.4775 13.4314 10.4845 13.4243 10.4923C13.4207 10.4962 13.4169 10.5002 13.4127 10.5045C13.4107 10.5067 13.4086 10.5089 13.4063 10.5111C13.4052 10.5122 13.4041 10.5134 13.4029 10.5145C13.4024 10.5151 13.4016 10.516 13.4012 10.5163C13.4003 10.5171 13.3994 10.518 12.7384 9.85322ZM14.4179 15.5364C16.3267 17.4343 17.7621 18.1729 18.8454 18.3391C19.3991 18.424 19.8454 18.3563 20.1841 18.2301C20.3501 18.1683 20.4823 18.0954 20.5823 18.0284C20.6323 17.9949 20.6741 17.963 20.7079 17.9349C20.7249 17.9209 20.7399 17.9078 20.7531 17.8958C20.7597 17.8898 20.7658 17.8841 20.7714 17.8788C20.7743 17.876 20.7769 17.8734 20.7796 17.8709C20.7808 17.8696 20.7821 17.8684 20.7833 17.8671C20.7839 17.8665 20.7849 17.8656 20.7852 17.8654C20.7861 17.8645 20.7869 17.8636 20.1259 17.1988C19.4649 16.534 19.4658 16.5331 19.4667 16.5323C19.4669 16.532 19.4678 16.5311 19.4684 16.5305C19.4696 16.5294 19.4707 16.5283 19.4718 16.5271C19.4742 16.525 19.4763 16.5229 19.4784 16.5208C19.4828 16.5166 19.4869 16.5129 19.4908 16.5093C19.4986 16.5023 19.5056 16.4961 19.5118 16.4911C19.5241 16.4809 19.5332 16.4744 19.5388 16.4705C19.5504 16.4628 19.5481 16.4663 19.5296 16.4731C19.4989 16.4845 19.3763 16.5236 19.1298 16.4858C18.6132 16.4066 17.5251 15.9816 15.7399 14.2068L14.4179 15.5364ZM12.4671 3.51202C11.193 1.81003 8.68751 1.54072 7.16585 3.05374L8.4879 4.38334C9.1525 3.7225 10.3328 3.78977 10.9661 4.63569L12.4671 3.51202ZM5.93966 7.62882C5.91507 7.19618 6.1135 6.74425 6.5259 6.3342L5.20385 5.0046C4.5322 5.67244 4.00417 6.61782 4.06769 7.7352L5.93966 7.62882ZM24.3404 22.7045C23.9969 23.0461 23.6287 23.2385 23.2584 23.273L23.4324 25.1399C24.3507 25.0543 25.1031 24.5904 25.6624 24.0341L24.3404 22.7045ZM13.7579 10.1615C14.9886 8.93788 15.0801 7.00238 14.0433 5.61752L12.5423 6.7412C13.0467 7.41493 12.9717 8.29923 12.4359 8.83194L13.7579 10.1615ZM25.6564 18.3586C26.6787 18.9144 26.8379 20.2211 26.1162 20.9389L27.4382 22.2685C29.1136 20.6026 28.5969 17.823 26.5519 16.7114L25.6564 18.3586ZM21.3563 17.2975C21.8363 16.8203 22.6089 16.702 23.2683 17.0604L24.1638 15.4131C22.8093 14.6768 21.1283 14.8801 20.0342 15.9679L21.3563 17.2975Z" fill="black"/>
</svg>
