<svg width="50" height="50" viewBox="0 0 50 50" fill="none" xmlns="http://www.w3.org/2000/svg">
<rect width="50" height="50" rx="25" fill="#F5F5F5"/>
<path fill-rule="evenodd" clip-rule="evenodd" d="M38.5 25C38.5 32.4558 32.4558 38.5 25 38.5C17.5442 38.5 11.5 32.4558 11.5 25C11.5 17.5442 17.5442 11.5 25 11.5C32.4558 11.5 38.5 17.5442 38.5 25ZM25.4838 21.4663C24.1707 22.0125 21.5464 23.1429 17.6109 24.8575C16.9718 25.1116 16.637 25.3603 16.6065 25.6034C16.555 26.0142 17.0695 26.176 17.7701 26.3963C17.8654 26.4263 17.9642 26.4573 18.0654 26.4902C18.7547 26.7143 19.6819 26.9764 20.1639 26.9868C20.6012 26.9963 21.0892 26.816 21.6279 26.446C25.305 23.9639 27.2032 22.7093 27.3223 22.6823C27.4064 22.6632 27.5229 22.6392 27.6018 22.7093C27.6808 22.7795 27.673 22.9124 27.6646 22.948C27.6137 23.1653 25.5941 25.0429 24.549 26.0145C24.2232 26.3174 23.9921 26.5323 23.9448 26.5814C23.839 26.6913 23.7311 26.7953 23.6275 26.8952C22.9871 27.5125 22.5069 27.9754 23.654 28.7314C24.2053 29.0947 24.6464 29.3951 25.0865 29.6948C25.5672 30.0221 26.0465 30.3486 26.6668 30.7551C26.8248 30.8587 26.9757 30.9663 27.1227 31.0711C27.6821 31.4699 28.1846 31.8281 28.8054 31.771C29.1661 31.7378 29.5387 31.3986 29.728 30.3869C30.1752 27.9961 31.0543 22.8158 31.2575 20.6811C31.2753 20.4941 31.2529 20.2547 31.2349 20.1497C31.2169 20.0446 31.1793 19.8949 31.0428 19.7841C30.881 19.6528 30.6313 19.6251 30.5196 19.6271C30.0119 19.6361 29.2328 19.9069 25.4838 21.4663Z" fill="black"/>
</svg>
