<svg xmlns="http://www.w3.org/2000/svg" width="211" height="50" viewBox="0 0 211 50" fill="none">
<path fill-rule="evenodd" clip-rule="evenodd" d="M26.8844 21.9082C32.042 25.3915 39.014 32.7582 39.1274 41.4207C30.5132 48.1707 18.3248 48.0582 9.7652 41.254C17.1908 36.6415 23.3102 29.779 26.8844 21.9082Z" fill="#75CA51"/>
<path fill-rule="evenodd" clip-rule="evenodd" d="M26.8844 21.9083C30.0008 15.3292 31.3616 8.07498 31.0214 0.87915C36.9182 2.50832 41.9036 6.44582 44.9108 11.6208C47.9138 16.7958 48.821 23.0375 47.2922 28.9417C41.2232 24.9458 34.1966 22.525 26.8844 21.9083Z" fill="#75CA51"/>
<path fill-rule="evenodd" clip-rule="evenodd" d="M15.998 1.6084C23.4782 6.05007 26.4266 15.7209 26.8802 21.9084C18.2072 21.0084 9.19402 22.8626 1.48702 26.9126C-0.209777 16.1709 5.74162 5.65423 15.998 1.6084Z" fill="#75CA51"/>
<path fill-rule="evenodd" clip-rule="evenodd" d="M65.936 46.5916C67.9184 46.5916 69.4514 45.6916 69.4514 43.6666V43.6124C69.4514 41.9249 67.9772 41.3083 66.6752 40.9125C65.6546 40.575 64.8062 40.3499 64.8062 39.8458V39.7916C64.8062 39.4541 65.1464 39.1749 65.768 39.1749C66.335 39.1749 67.0154 39.4 67.7504 39.7375C67.9184 39.85 68.0318 39.8499 68.2586 39.8499C68.8256 39.8499 69.3338 39.4 69.3338 38.8375C69.3338 38.3874 69.107 38.0499 68.7122 37.8833C67.805 37.4333 66.8432 37.2083 65.8772 37.2083C64.0082 37.2083 62.534 38.2208 62.534 40.1333V40.1874C62.534 41.9874 64.0082 42.5499 65.3102 42.9416C66.3308 43.2208 67.238 43.4458 67.238 44.0083V44.0625C67.238 44.4541 66.8978 44.7375 66.1628 44.7375C65.4278 44.7375 64.5206 44.4583 63.668 43.8958C63.5546 43.7833 63.3278 43.7833 63.1598 43.7833C62.5928 43.7833 62.1392 44.2333 62.1392 44.7958C62.1392 45.1875 62.366 45.5249 62.6474 45.6958C63.5588 46.2541 64.802 46.5916 65.936 46.5916ZM79.712 38.4958C79.712 37.7666 79.145 37.2041 78.41 37.2041C77.675 37.2041 77.108 37.7666 77.108 38.4958V42.3749C77.108 43.6124 76.4864 44.2291 75.4658 44.2291C74.4452 44.2291 73.8782 43.6124 73.8782 42.3749V38.4958C73.8782 37.7666 73.3112 37.2041 72.5762 37.2041C71.8412 37.2041 71.2742 37.7666 71.2742 38.4958V43.2208C71.2742 45.3 72.4082 46.5958 74.3906 46.5958C75.6926 46.5958 76.4864 45.9208 77.1122 45.1333V45.2458C77.1122 45.9749 77.6792 46.5375 78.4142 46.5375C79.1492 46.5375 79.7162 45.9749 79.7162 45.2458V38.4958H79.712ZM82.0346 47.9416C82.0346 48.6708 82.6016 49.2333 83.3366 49.2333C84.0716 49.2333 84.6386 48.6708 84.6386 47.9416V45.1874C85.2602 45.9166 86.1128 46.5375 87.5282 46.5375C89.6828 46.5375 91.724 44.8499 91.724 41.8124V41.7583C91.724 38.7208 89.6828 37.0333 87.5282 37.0333C86.1674 37.0333 85.319 37.65 84.6386 38.4958V38.3833C84.6386 37.6541 84.0716 37.0916 83.3366 37.0916C82.6016 37.0916 82.0346 37.6541 82.0346 38.3833V47.9416ZM86.852 44.3999C85.6046 44.3999 84.6428 43.3874 84.6428 41.8708V41.8166C84.6428 40.3 85.6634 39.2875 86.852 39.2875C88.0994 39.2875 89.12 40.3 89.12 41.8166V41.8708C89.12 43.3874 88.0994 44.3999 86.852 44.3999ZM95.7518 41.1375C95.9786 39.9583 96.659 39.1708 97.7342 39.1708C98.8094 39.1708 99.5486 39.9583 99.662 41.1375H95.7518ZM101.25 45.525C101.418 45.3583 101.59 45.075 101.59 44.7375C101.59 44.175 101.136 43.725 100.569 43.725C100.288 43.725 100.116 43.7791 99.9476 43.95C99.4394 44.3416 98.8136 44.5666 98.0786 44.5666C96.89 44.5666 96.0962 43.95 95.8106 42.7666H100.968C101.649 42.7666 102.216 42.2624 102.216 41.5291C102.216 39.6166 100.855 37.1416 97.793 37.1416C95.1302 37.1416 93.257 39.2791 93.257 41.9208V41.9749C93.257 44.7874 95.2982 46.7 98.0744 46.7C99.3806 46.5916 100.401 46.2 101.25 45.525ZM104.198 45.2458C104.198 45.9749 104.765 46.5375 105.5 46.5375C106.235 46.5375 106.802 45.9749 106.802 45.2458V42.8291C106.802 40.975 107.537 39.9625 108.843 39.6791C109.351 39.5666 109.805 39.175 109.805 38.4416C109.805 37.7125 109.351 37.2041 108.558 37.2041C107.764 37.2041 107.142 38.0458 106.802 38.8916V38.5C106.802 37.7708 106.235 37.2083 105.5 37.2083C104.765 37.2083 104.198 37.7708 104.198 38.5V45.2458ZM111.397 45.2458C111.397 45.9749 111.964 46.5375 112.699 46.5375C113.434 46.5375 114.001 45.9749 114.001 45.2458V41.3083C114.001 40.0708 114.622 39.4541 115.588 39.4541C116.55 39.4541 117.117 40.0708 117.117 41.3083V45.2458C117.117 45.9749 117.684 46.5375 118.419 46.5375C119.154 46.5375 119.721 45.9749 119.721 45.2458V41.3083C119.721 40.0708 120.343 39.4541 121.309 39.4541C122.271 39.4541 122.838 40.0708 122.838 41.3083V45.2458C122.838 45.9749 123.405 46.5375 124.14 46.5375C124.875 46.5375 125.442 45.9749 125.442 45.2458V40.4625C125.442 38.2708 124.253 37.0875 122.325 37.0875C121.078 37.0875 120.116 37.5916 119.322 38.5499C118.814 37.6499 117.907 37.0875 116.714 37.0875C115.412 37.0875 114.618 37.7624 113.992 38.5499V38.4375C113.992 37.7083 113.425 37.1458 112.69 37.1458C111.955 37.1458 111.388 37.7083 111.388 38.4375L111.397 45.2458ZM130.33 46.5916C131.578 46.5916 132.485 46.1416 133.107 45.4124C133.107 45.9749 133.615 46.4791 134.354 46.4791C135.034 46.4791 135.601 45.9166 135.601 45.2416V41.0833C135.601 39.8458 135.32 38.8333 134.581 38.1583C133.9 37.4833 132.88 37.1458 131.464 37.1458C130.217 37.1458 129.369 37.3125 128.516 37.65C128.121 37.8166 127.836 38.2125 127.836 38.6625C127.836 39.2791 128.344 39.7291 128.911 39.7291C129.024 39.7291 129.138 39.7291 129.306 39.675C129.814 39.5083 130.381 39.3958 131.12 39.3958C132.422 39.3958 133.102 40.0124 133.102 41.0833V41.25C132.422 41.025 131.8 40.8583 130.834 40.8583C128.68 40.8583 127.151 41.7583 127.151 43.7833V43.8375C127.155 45.5833 128.571 46.5916 130.33 46.5916ZM131.124 44.7958C130.276 44.7958 129.709 44.4041 129.709 43.6708V43.6166C129.709 42.775 130.389 42.3791 131.523 42.3791C132.145 42.3791 132.771 42.4916 133.165 42.7166V43.1666C133.165 44.1208 132.372 44.7958 131.124 44.7958ZM137.924 45.2458C137.924 45.9749 138.491 46.5375 139.226 46.5375C139.961 46.5375 140.528 45.9749 140.528 45.2458V42.8291C140.528 40.975 141.263 39.9625 142.569 39.6791C143.077 39.5666 143.531 39.175 143.531 38.4416C143.531 37.7125 143.077 37.2041 142.284 37.2041C141.49 37.2041 140.868 38.0458 140.528 38.8916V38.5C140.528 37.7708 139.961 37.2083 139.226 37.2083C138.491 37.2083 137.924 37.7708 137.924 38.5V45.2458ZM145.068 45.2458C145.068 45.9749 145.635 46.5375 146.37 46.5375C147.105 46.5375 147.672 45.9749 147.672 45.2458V43.7833L148.693 42.8291L150.961 45.9791C151.242 46.4291 151.582 46.5958 152.095 46.5958C152.775 46.5958 153.342 46.0916 153.342 45.4166C153.342 45.1375 153.229 44.9125 153.002 44.575L150.566 41.25L152.607 39.5083C152.947 39.1708 153.229 38.8333 153.229 38.3833C153.229 37.7666 152.775 37.2041 152.095 37.2041C151.641 37.2041 151.301 37.4291 150.961 37.7666L147.672 40.8583V35.1791C147.672 34.45 147.105 33.8875 146.37 33.8875C145.635 33.8875 145.068 34.45 145.068 35.1791V45.2458ZM157.139 41.1375C157.366 39.9583 158.046 39.1708 159.121 39.1708C160.197 39.1708 160.936 39.9583 161.049 41.1375H157.139ZM162.582 45.525C162.75 45.3583 162.922 45.075 162.922 44.7375C162.922 44.175 162.469 43.725 161.902 43.725C161.62 43.725 161.448 43.7791 161.28 43.95C160.772 44.3416 160.146 44.5666 159.411 44.5666C158.223 44.5666 157.429 43.95 157.143 42.7666H162.301C162.981 42.7666 163.548 42.2624 163.548 41.5291C163.548 39.6166 162.187 37.1416 159.126 37.1416C156.463 37.1416 154.59 39.2791 154.59 41.9208V41.9749C154.59 44.7874 156.631 46.7 159.407 46.7C160.713 46.5916 161.788 46.2 162.582 45.525ZM168.706 46.5916C169.273 46.5916 169.726 46.5375 170.18 46.3125C170.52 46.2 170.86 45.8083 170.86 45.3583C170.86 44.7416 170.352 44.2916 169.785 44.2916C169.731 44.2916 169.558 44.2916 169.504 44.2916C168.937 44.2916 168.655 44.0125 168.655 43.3916V39.5125H169.789C170.411 39.5125 170.923 39.0083 170.923 38.3874C170.923 37.7666 170.415 37.2625 169.789 37.2625H168.655V36.1375C168.655 35.4083 168.088 34.8458 167.353 34.8458C166.618 34.8458 166.051 35.4083 166.051 36.1375V37.2625H165.938C165.316 37.2625 164.804 37.7666 164.804 38.3874C164.804 39.0083 165.312 39.5125 165.938 39.5125H166.051V43.8416C165.984 45.9208 167.059 46.5916 168.706 46.5916Z" fill="#75CA51"/>
<path fill-rule="evenodd" clip-rule="evenodd" d="M201.126 29.2165C203.394 29.2165 205.376 28.3748 207.136 26.6873C208.891 24.9998 209.799 22.8623 209.799 20.3873V17.6332C209.799 15.1582 208.891 13.0207 207.136 11.3915C205.321 9.76234 203.28 8.9165 201.071 8.9165H193.645C191.377 8.9165 189.282 9.75817 187.408 11.3915C185.539 13.079 184.632 15.1582 184.632 17.6332V20.4998C184.632 22.9748 185.539 25.1123 187.295 26.7415C189.051 28.3707 191.037 29.2165 193.305 29.2165H201.126ZM203.793 18.0832V19.8832C203.793 21.1207 203.339 22.2457 202.491 23.1457C201.583 24.0457 200.563 24.4373 199.374 24.4373H195.01C193.822 24.4373 192.742 23.9873 191.894 23.1457C190.987 22.2457 190.592 21.179 190.592 19.8832V18.0832C190.592 16.7915 191.046 15.6665 191.894 14.8207C192.801 13.979 193.822 13.529 195.069 13.529H199.433C200.735 13.529 201.756 13.979 202.608 14.8207C203.394 15.6665 203.847 16.7915 203.793 18.0832Z" fill="#75CA51"/>
<path fill-rule="evenodd" clip-rule="evenodd" d="M169.1 18.475C169.1 16.9584 169.441 15.7209 170.176 14.875C170.856 13.975 171.931 13.5834 173.351 13.5834H181.965V8.86255H172.103C169.441 8.86255 167.227 9.76255 165.64 11.45C163.997 13.1375 163.145 15.4417 163.145 18.3125V29.2209H169.096L169.1 18.475Z" fill="#75CA51"/>
<path fill-rule="evenodd" clip-rule="evenodd" d="M152.775 8.86245L150.394 12.4041C149.827 13.2458 149.26 13.8666 148.693 14.2583C148.126 14.65 147.391 14.8208 146.425 14.8208H141.607V0.762451H135.597V29.2166H141.607V19.5458H145.064C146.479 19.5458 147.445 19.7125 147.954 20.0499C148.462 20.3874 148.974 21.1166 149.541 22.1291L153.397 29.2125H160.142L155.152 20.0458C154.359 18.6416 153.338 17.7958 151.923 17.6291C153.225 17.35 154.191 16.6166 154.984 15.4916L159.462 8.91245L152.775 8.86245Z" fill="#75CA51"/>
<path fill-rule="evenodd" clip-rule="evenodd" d="M111.115 16.6209C109.587 16.6209 108.226 17.1834 106.978 18.3084C105.731 19.4334 105.109 20.95 105.109 22.8625C105.109 24.6042 105.676 26.0667 106.81 27.3042C107.944 28.5417 109.36 29.1584 111.006 29.1584H122.682C125.064 29.1584 126.933 28.4292 128.293 26.9084C129.654 25.4459 130.335 23.7042 130.335 21.7334V15.8334C130.335 13.8667 129.654 12.1792 128.352 10.8292C127.05 9.4792 124.95 8.8042 122.174 8.8042H108.003V13.5834H121.38C122.401 13.5834 123.136 13.8084 123.648 14.2C124.156 14.65 124.329 15.2125 124.329 15.8292V16.5042L111.115 16.6209ZM124.379 20.8375V22.075C124.379 22.75 124.152 23.3125 123.699 23.7625C123.19 24.2125 122.623 24.4375 121.83 24.4375H112.304C111.85 24.4375 111.456 24.2709 111.115 23.9334C110.775 23.5959 110.607 23.1459 110.607 22.5834C110.607 22.0792 110.775 21.6292 111.115 21.2917C111.456 21.0125 111.85 20.7875 112.304 20.7875L124.379 20.8375Z" fill="#75CA51"/>
<path fill-rule="evenodd" clip-rule="evenodd" d="M84.7016 29.2167V19.1501C84.7016 17.6334 85.0964 16.2834 85.8356 15.2126C87.3098 13.0209 92.2994 13.0209 94.055 14.9334C94.8488 15.8334 95.2436 16.9584 95.2436 18.3084V29.2751H101.195V18.3626C101.195 15.6084 100.401 13.3001 98.8136 11.5584C94.8446 7.17089 85.2644 8.12923 81.8666 12.6251C78.6368 7.90006 68.771 7.56256 64.8608 11.6709C63.1598 13.4709 62.2526 15.7209 62.2526 18.3626V29.2709H68.204V18.3084C68.204 16.9584 68.5988 15.8334 69.3926 14.9917C71.0936 13.1376 76.0244 13.1376 77.612 15.1042C78.347 16.0584 78.6872 17.2959 78.6872 18.8167V29.2751L84.7016 29.2167Z" fill="#75CA51"/>
</svg>