<svg width="121" height="40" viewBox="0 0 121 40" fill="none" xmlns="http://www.w3.org/2000/svg">
<g clip-path="url(#clip0_1154_1905)">
<path d="M110.572 0.00013H9.97218C9.60548 0.00013 9.24318 0.00013 8.87745 0.00213C8.5713 0.00413 8.26759 0.00994 7.9585 0.01483C7.28701 0.0227318 6.61711 0.0818063 5.9546 0.19154C5.29302 0.303663 4.65217 0.515046 4.05372 0.81854C3.456 1.1246 2.90985 1.5223 2.43507 1.9972C1.9578 2.47077 1.55996 3.01815 1.25685 3.61829C0.9529 4.21724 0.742141 4.85907 0.63185 5.52161C0.520511 6.18332 0.460598 6.85265 0.45265 7.52361C0.44337 7.83021 0.44239 8.13783 0.4375 8.44447V31.5587C0.44239 31.8692 0.44337 32.17 0.45265 32.4806C0.460601 33.1516 0.520513 33.8209 0.63185 34.4825C0.741836 35.1455 0.952608 35.7877 1.25685 36.3868C1.55983 36.985 1.95772 37.5302 2.43507 38.0011C2.90804 38.4781 3.45455 38.8761 4.05372 39.1798C4.65217 39.4841 5.29295 39.6968 5.9546 39.8106C6.61722 39.9195 7.28706 39.9786 7.9585 39.9874C8.26759 39.9942 8.5713 39.9981 8.87745 39.9981C9.24317 40.0001 9.6055 40.0001 9.97218 40.0001H110.572C110.932 40.0001 111.297 40.0001 111.656 39.9981C111.961 39.9981 112.273 39.9942 112.578 39.9874C113.248 39.9791 113.917 39.92 114.578 39.8106C115.242 39.696 115.885 39.4834 116.486 39.1798C117.085 38.8759 117.631 38.478 118.104 38.0011C118.58 37.5284 118.978 36.9836 119.285 36.3868C119.587 35.7872 119.796 35.1451 119.904 34.4825C120.016 33.8208 120.078 33.1516 120.09 32.4806C120.094 32.17 120.094 31.8692 120.094 31.5587C120.102 31.1954 120.102 30.8341 120.102 30.4649V9.53626C120.102 9.17005 120.102 8.80677 120.094 8.44447C120.094 8.13783 120.094 7.83021 120.09 7.52357C120.078 6.85255 120.016 6.18337 119.904 5.52157C119.796 4.85941 119.587 4.21763 119.285 3.61825C118.668 2.41533 117.689 1.43616 116.486 0.81845C115.885 0.515697 115.242 0.30437 114.578 0.19145C113.917 0.0812328 113.248 0.0221378 112.578 0.01469C112.273 0.00981 111.961 0.00395 111.656 0.002C111.297 0 110.932 0.00013 110.572 0.00013Z" fill="#A6A6A6"/>
<path d="M8.88234 39.125C8.57766 39.125 8.28034 39.1211 7.97805 39.1143C7.35183 39.1061 6.72707 39.0516 6.10891 38.9512C5.5325 38.8519 4.97411 38.6673 4.45217 38.4033C3.93501 38.1415 3.46332 37.7983 3.05517 37.3867C2.64111 36.98 2.29638 36.5082 2.03466 35.9902C1.77005 35.4688 1.58692 34.9099 1.49166 34.333C1.38878 33.7131 1.33312 33.0863 1.32516 32.458C1.31882 32.2471 1.31052 31.5449 1.31052 31.5449V8.44434C1.31052 8.44434 1.31936 7.75293 1.32521 7.5498C1.33283 6.92248 1.38817 6.29665 1.49074 5.67773C1.58618 5.09925 1.76944 4.53875 2.0342 4.01563C2.29496 3.49794 2.63777 3.02586 3.04934 2.61768C3.46044 2.20562 3.93364 1.8606 4.45168 1.59521C4.97242 1.33209 5.52975 1.14873 6.105 1.05127C6.72519 0.949836 7.35212 0.894996 7.98051 0.88721L8.88283 0.875H111.651L112.564 0.8877C113.187 0.895099 113.808 0.94945 114.423 1.05029C115.004 1.14898 115.567 1.33362 116.094 1.59814C117.132 2.13299 117.976 2.97916 118.509 4.01807C118.769 4.53758 118.95 5.09351 119.044 5.66699C119.148 6.29099 119.206 6.92174 119.218 7.5542C119.221 7.8374 119.221 8.1416 119.221 8.44434C119.229 8.81934 119.229 9.17627 119.229 9.53613V30.4648C119.229 30.8281 119.229 31.1826 119.221 31.54C119.221 31.8652 119.221 32.1631 119.217 32.4697C119.205 33.0909 119.148 33.7104 119.046 34.3232C118.953 34.9043 118.77 35.4675 118.506 35.9932C118.242 36.5056 117.9 36.9733 117.49 37.3789C117.082 37.7927 116.609 38.1379 116.091 38.4014C115.566 38.6674 115.003 38.8527 114.423 38.9512C113.805 39.0522 113.18 39.1067 112.554 39.1143C112.261 39.1211 111.954 39.125 111.656 39.125L110.572 39.127L8.88234 39.125Z" fill="black"/>
<path d="M25.2064 20.3006C25.2171 19.4659 25.4388 18.6475 25.8509 17.9216C26.2629 17.1956 26.8519 16.5857 27.5629 16.1485C27.1112 15.5034 26.5153 14.9724 25.8224 14.5979C25.1296 14.2233 24.359 14.0155 23.5718 13.9908C21.8925 13.8146 20.2646 14.9957 19.4089 14.9957C18.5366 14.9957 17.2191 14.0083 15.8004 14.0375C14.8827 14.0672 13.9884 14.334 13.2045 14.8121C12.4206 15.2901 11.7739 15.9631 11.3275 16.7654C9.39347 20.1138 10.8361 25.0349 12.6887 27.7415C13.6156 29.0668 14.6988 30.5473 16.1163 30.4948C17.5034 30.4372 18.0214 29.6103 19.6957 29.6103C21.3545 29.6103 21.8405 30.4948 23.2867 30.4614C24.7751 30.4372 25.7128 29.1302 26.6072 27.7923C27.2732 26.8479 27.7856 25.8042 28.1256 24.6997C27.2609 24.334 26.523 23.7218 26.0039 22.9395C25.4848 22.1572 25.2074 21.2394 25.2064 20.3006Z" fill="white"/>
<path d="M22.4748 12.2108C23.2863 11.2366 23.6861 9.98445 23.5893 8.72021C22.3494 8.85044 21.2042 9.44299 20.3817 10.3798C19.9796 10.8375 19.6716 11.3699 19.4753 11.9467C19.2791 12.5235 19.1984 13.1333 19.238 13.7412C19.8581 13.7476 20.4716 13.6132 21.0323 13.3481C21.593 13.083 22.0862 12.6942 22.4748 12.2108Z" fill="white"/>
<path d="M42.7398 27.1397H38.0064L36.8697 30.4961H34.8648L39.3482 18.0781H41.4312L45.9146 30.4961H43.8755L42.7398 27.1397ZM38.4966 25.5908H42.2486L40.399 20.1436H40.3472L38.4966 25.5908Z" fill="white"/>
<path d="M55.5972 25.9697C55.5972 28.7832 54.0913 30.5908 51.8189 30.5908C51.2432 30.6209 50.6707 30.4883 50.1669 30.2082C49.6631 29.928 49.2484 29.5117 48.9702 29.0068H48.9272V33.4912H47.0688V21.4423H48.8677V22.9482H48.9019C49.1928 22.4457 49.6146 22.0316 50.1222 21.7497C50.6298 21.4679 51.2044 21.3289 51.7847 21.3476C54.0825 21.3476 55.5972 23.164 55.5972 25.9697ZM53.687 25.9697C53.687 24.1367 52.7398 22.9316 51.2945 22.9316C49.8745 22.9316 48.9195 24.1621 48.9195 25.9697C48.9195 27.7939 49.8745 29.0156 51.2945 29.0156C52.7398 29.0156 53.687 27.8193 53.687 25.9697Z" fill="white"/>
<path d="M65.562 25.9697C65.562 28.7832 64.0562 30.5908 61.7837 30.5908C61.2081 30.6209 60.6356 30.4883 60.1318 30.2081C59.628 29.928 59.2133 29.5117 58.9351 29.0068H58.8921V33.4912H57.0337V21.4423H58.8325V22.9482H58.8667C59.1576 22.4457 59.5794 22.0315 60.087 21.7497C60.5946 21.4679 61.1692 21.3289 61.7495 21.3476C64.0474 21.3476 65.562 23.164 65.562 25.9697ZM63.6519 25.9697C63.6519 24.1367 62.7046 22.9316 61.2593 22.9316C59.8394 22.9316 58.8843 24.1621 58.8843 25.9697C58.8843 27.7939 59.8394 29.0156 61.2593 29.0156C62.7046 29.0156 63.6519 27.8193 63.6519 25.9697Z" fill="white"/>
<path d="M72.148 27.0362C72.2857 28.2676 73.482 29.0762 75.1167 29.0762C76.6831 29.0762 77.8101 28.2676 77.8101 27.1572C77.8101 26.1934 77.1304 25.6162 75.521 25.2207L73.9117 24.833C71.6314 24.2822 70.5728 23.2158 70.5728 21.4854C70.5728 19.3428 72.44 17.8711 75.0913 17.8711C77.7153 17.8711 79.5142 19.3428 79.5747 21.4854H77.6987C77.5864 20.2461 76.562 19.4981 75.0649 19.4981C73.5679 19.4981 72.5435 20.2549 72.5435 21.3565C72.5435 22.2344 73.1978 22.751 74.7983 23.1465L76.1665 23.4824C78.7144 24.0849 79.773 25.1084 79.773 26.9248C79.773 29.248 77.9224 30.7031 74.979 30.7031C72.2251 30.7031 70.3657 29.2822 70.2456 27.0361L72.148 27.0362Z" fill="white"/>
<path d="M83.7837 19.2998V21.4424H85.5054V22.9141H83.7837V27.9053C83.7837 28.6807 84.1284 29.042 84.8853 29.042C85.0897 29.0384 85.2937 29.0241 85.4966 28.999V30.4619C85.1563 30.5255 84.8105 30.5543 84.4644 30.5478C82.6314 30.5478 81.9165 29.8593 81.9165 28.1035V22.9141H80.6001V21.4424H81.9165V19.2998H83.7837Z" fill="white"/>
<path d="M86.5025 25.9697C86.5025 23.1211 88.1802 21.3311 90.7964 21.3311C93.4214 21.3311 95.0914 23.1211 95.0914 25.9697C95.0914 28.8262 93.4302 30.6084 90.7964 30.6084C88.1636 30.6084 86.5025 28.8262 86.5025 25.9697ZM93.1978 25.9697C93.1978 24.0156 92.3023 22.8623 90.7964 22.8623C89.2906 22.8623 88.396 24.0244 88.396 25.9697C88.396 27.9316 89.2906 29.0762 90.7964 29.0762C92.3023 29.0762 93.1978 27.9316 93.1978 25.9697Z" fill="white"/>
<path d="M96.6236 21.4425H98.396V22.9835H98.439C98.559 22.5022 98.8409 22.0769 99.2375 21.779C99.6341 21.4811 100.121 21.3288 100.617 21.3478C100.831 21.347 101.045 21.3703 101.253 21.4171V23.1554C100.983 23.0728 100.701 23.0348 100.418 23.0431C100.149 23.0321 99.8794 23.0797 99.6295 23.1826C99.3797 23.2855 99.1551 23.4412 98.9711 23.6391C98.7871 23.837 98.6481 24.0724 98.5637 24.3291C98.4793 24.5857 98.4514 24.8576 98.482 25.1261V30.4962H96.6236L96.6236 21.4425Z" fill="white"/>
<path d="M109.822 27.8369C109.572 29.4805 107.971 30.6084 105.923 30.6084C103.29 30.6084 101.655 28.8437 101.655 26.0127C101.655 23.1729 103.298 21.3311 105.845 21.3311C108.35 21.3311 109.925 23.0518 109.925 25.7969V26.4336H103.531V26.5459C103.501 26.8791 103.543 27.2148 103.653 27.5306C103.763 27.8464 103.939 28.1352 104.17 28.3778C104.4 28.6203 104.68 28.8111 104.989 28.9374C105.299 29.0637 105.632 29.1226 105.966 29.1103C106.406 29.1515 106.846 29.0498 107.223 28.8203C107.6 28.5909 107.892 28.246 108.057 27.8369L109.822 27.8369ZM103.54 25.1348H108.066C108.083 24.8352 108.037 24.5354 107.933 24.2541C107.828 23.9729 107.666 23.7164 107.458 23.5006C107.249 23.2849 106.998 23.1145 106.721 23.0003C106.443 22.8861 106.145 22.8305 105.845 22.8369C105.543 22.8351 105.243 22.8933 104.963 23.008C104.683 23.1227 104.428 23.2918 104.214 23.5054C103.999 23.7191 103.829 23.973 103.714 24.2527C103.598 24.5323 103.539 24.8321 103.54 25.1348Z" fill="white"/>
<path d="M37.1758 11.2534H37.9737C38.111 11.2705 38.2504 11.259 38.3831 11.2195C38.5157 11.1801 38.6388 11.1136 38.7445 11.0242C38.8502 10.9349 38.9362 10.8246 38.9972 10.7003C39.0581 10.576 39.0927 10.4405 39.0987 10.3022C39.0987 9.75193 38.6846 9.39646 37.9824 9.39646C37.8417 9.3768 37.6985 9.38553 37.5612 9.42214C37.4239 9.45875 37.2954 9.52249 37.1831 9.60961C37.0709 9.69672 36.9773 9.80544 36.9077 9.92935C36.8382 10.0533 36.7942 10.1898 36.7783 10.331H35.9023C35.9174 10.0747 35.9851 9.82428 36.1012 9.59527C36.2172 9.36626 36.3792 9.16359 36.577 8.99989C36.7748 8.83618 37.0041 8.71494 37.2508 8.64372C37.4975 8.5725 37.7561 8.55282 38.0107 8.58591C39.1855 8.58591 40.0127 9.24362 40.0127 10.1904C40.0155 10.5076 39.9094 10.8161 39.7121 11.0645C39.5148 11.3129 39.2383 11.486 38.9287 11.5551V11.6255C39.2957 11.6417 39.6414 11.8027 39.8901 12.073C40.1388 12.3434 40.2703 12.7013 40.2559 13.0683C40.2287 13.3322 40.1492 13.588 40.0219 13.8208C39.8946 14.0535 39.7221 14.2585 39.5145 14.4237C39.307 14.5889 39.0685 14.7111 38.8131 14.7829C38.5578 14.8548 38.2906 14.875 38.0274 14.8423C37.7636 14.8782 37.4952 14.8607 37.2383 14.7907C36.9814 14.7208 36.7412 14.5998 36.5321 14.4351C36.3229 14.2703 36.1491 14.0651 36.021 13.8317C35.8928 13.5983 35.813 13.3415 35.7862 13.0766H36.6758C36.7295 13.6474 37.2539 14.0156 38.0274 14.0156C38.8008 14.0156 39.3057 13.6021 39.3057 13.0191C39.3057 12.4277 38.8301 12.0635 37.9991 12.0635H37.1758V11.2534Z" fill="white"/>
<path d="M41.2666 13.4243C41.2666 12.6138 41.8711 12.1465 42.9414 12.0801L44.1612 12.0098V11.6211C44.1612 11.1455 43.8477 10.877 43.2393 10.877C42.7432 10.877 42.4004 11.0591 42.3008 11.3774H41.4405C41.5313 10.604 42.2598 10.1079 43.2813 10.1079C44.4102 10.1079 45.0469 10.6699 45.0469 11.6211V14.6978H44.1905V14.0649H44.1202C43.9774 14.2919 43.777 14.477 43.5394 14.6012C43.3018 14.7254 43.0355 14.7843 42.7676 14.7719C42.5786 14.7916 42.3875 14.7714 42.2068 14.7127C42.026 14.654 41.8595 14.5581 41.7181 14.4311C41.5767 14.3042 41.4635 14.149 41.3857 13.9756C41.3079 13.8021 41.2674 13.6144 41.2666 13.4243ZM44.1612 13.0395V12.6631L43.0615 12.7334C42.4414 12.7749 42.1601 12.9858 42.1601 13.3828C42.1601 13.7881 42.5117 14.0239 42.9951 14.0239C43.1368 14.0383 43.2799 14.024 43.4159 13.9819C43.5519 13.9398 43.678 13.8708 43.7868 13.7789C43.8956 13.6871 43.9848 13.5743 44.0491 13.4473C44.1134 13.3202 44.1515 13.1816 44.1612 13.0395Z" fill="white"/>
<path d="M47.4053 10.9429V14.6978H46.5166V10.1948H49.4815V10.9428L47.4053 10.9429Z" fill="white"/>
<path d="M54.8672 12.4443C54.8672 13.875 54.1436 14.7719 53.0069 14.7719C52.7278 14.791 52.4492 14.7299 52.2037 14.5959C51.9582 14.4619 51.756 14.2606 51.6211 14.0156H51.5508V16.1948H50.6621V10.1948H51.5176V10.939H51.584C51.7214 10.6854 51.9261 10.4747 52.1756 10.3302C52.4252 10.1857 52.7098 10.113 52.9981 10.1201C54.1436 10.1201 54.8672 11.0131 54.8672 12.4443ZM53.9532 12.4443C53.9532 11.4931 53.503 10.9184 52.75 10.9184C52.002 10.9184 51.5342 11.5053 51.5342 12.4482C51.5342 13.3867 52.002 13.9741 52.7461 13.9741C53.503 13.9741 53.9532 13.3994 53.9532 12.4443Z" fill="white"/>
<path d="M56.0508 16.3106V15.5454C56.147 15.5576 56.2439 15.5632 56.3408 15.562C56.5301 15.576 56.718 15.5197 56.8683 15.4037C57.0186 15.2877 57.1208 15.1203 57.1553 14.9336L57.2217 14.7144L55.5918 10.1948H56.5596L57.6885 13.7715H57.7588L58.8838 10.1948H59.8262L58.1475 14.8838C57.7627 15.9795 57.3369 16.3311 56.419 16.3311C56.3447 16.3311 56.1338 16.3228 56.0508 16.3106Z" fill="white"/>
<path d="M60.5186 13.4198H61.4033C61.4902 13.8168 61.8623 14.0238 62.3828 14.0238C62.9746 14.0238 63.3379 13.763 63.3379 13.3578C63.3379 12.9237 63.0117 12.7167 62.3828 12.7167H61.709V12.0262H62.3711C62.9082 12.0262 63.1817 11.8197 63.1817 11.4432C63.1817 11.1127 62.917 10.8602 62.3711 10.8602C61.874 10.8602 61.5108 11.0712 61.4531 11.4267H60.5967C60.6607 11.0182 60.8825 10.6512 61.2143 10.4045C61.5462 10.1579 61.9615 10.0514 62.3711 10.1078C63.4414 10.1078 64.0537 10.5917 64.0537 11.3524C64.0587 11.5643 63.9908 11.7714 63.8614 11.9392C63.732 12.107 63.5489 12.2253 63.3428 12.2743V12.3446C63.5882 12.3763 63.8135 12.4969 63.9759 12.6837C64.1383 12.8705 64.2264 13.1103 64.2237 13.3578C64.2237 14.2138 63.4951 14.7802 62.3828 14.7802C61.3994 14.7801 60.6006 14.3295 60.5186 13.4198Z" fill="white"/>
<path d="M65.5034 14.6978V10.1948H66.3843V13.292H66.4546L68.5298 10.1948H69.4107V14.6978H68.5298V11.584H68.4634L66.3843 14.6978L65.5034 14.6978Z" fill="white"/>
<path d="M74.2632 10.9428H72.8452V14.6977H71.9556V10.9428H70.5376V10.1948H74.2632V10.9428Z" fill="white"/>
<path d="M79.0503 13.482C78.9292 13.8935 78.6674 14.2494 78.3106 14.4875C77.9538 14.7257 77.5247 14.8309 77.0982 14.7847C76.8015 14.7926 76.5067 14.7358 76.2342 14.6182C75.9617 14.5007 75.718 14.3253 75.5201 14.1041C75.3222 13.883 75.1748 13.6214 75.0881 13.3376C75.0014 13.0538 74.9775 12.7545 75.0181 12.4605C74.9786 12.1656 75.0029 11.8657 75.0894 11.581C75.1759 11.2964 75.3225 11.0336 75.5194 10.8105C75.7162 10.5874 75.9587 10.4093 76.2305 10.2881C76.5022 10.1669 76.7968 10.1054 77.0943 10.108C78.3472 10.108 79.104 10.964 79.104 12.378V12.6881H75.9243V12.7379C75.9103 12.9032 75.9309 13.0696 75.985 13.2264C76.039 13.3832 76.1253 13.527 76.2383 13.6485C76.3512 13.77 76.4883 13.8665 76.6408 13.9318C76.7932 13.9972 76.9577 14.0299 77.1236 14.0279C77.336 14.0533 77.5512 14.0149 77.7418 13.9177C77.9323 13.8205 78.0897 13.6689 78.1939 13.482L79.0503 13.482ZM75.9243 12.0308H78.1978C78.209 11.8798 78.1885 11.7281 78.1376 11.5854C78.0867 11.4427 78.0066 11.3123 77.9023 11.2024C77.798 11.0926 77.6719 11.0058 77.5321 10.9475C77.3922 10.8893 77.2418 10.861 77.0903 10.8643C76.9366 10.8623 76.784 10.891 76.6415 10.9489C76.4991 11.0068 76.3697 11.0926 76.261 11.2014C76.1523 11.3101 76.0665 11.4396 76.0087 11.582C75.9509 11.7245 75.9222 11.8771 75.9243 12.0308Z" fill="white"/>
<path d="M82.8179 10.1948H84.8482C85.729 10.1948 86.2456 10.6411 86.2456 11.3398C86.247 11.5615 86.1722 11.777 86.0337 11.9501C85.8952 12.1233 85.7015 12.2436 85.4849 12.291V12.3613C85.7479 12.3779 85.9944 12.4949 86.1736 12.6881C86.3528 12.8813 86.4509 13.1359 86.4478 13.3994C86.4478 14.185 85.8569 14.6977 84.8687 14.6977H82.8179V10.1948ZM83.6988 10.877V12.043H84.5796C85.1167 12.043 85.3736 11.8364 85.3736 11.4556C85.3736 11.1045 85.1499 10.8769 84.6783 10.8769L83.6988 10.877ZM83.6988 12.6963V14.0156H84.7525C85.2779 14.0156 85.5591 13.7837 85.5591 13.3579C85.5591 12.9072 85.2408 12.6963 84.6411 12.6963L83.6988 12.6963Z" fill="white"/>
</g>
<defs>
<clipPath id="clip0_1154_1905">
<rect width="119.664" height="40" fill="white" transform="translate(0.4375)"/>
</clipPath>
</defs>
</svg>
