<svg xmlns="http://www.w3.org/2000/svg" width="24" height="24" viewBox="0 0 24 24" fill="none">
<path d="M4.00024 8.00001C4.00024 5.17158 4.00024 3.75737 4.87892 2.87869C5.7576 2.00001 7.17181 2.00001 10.0002 2.00001H14.0002C16.8286 2.00001 18.2428 2.00001 19.1215 2.87869C20.0002 3.75737 20.0002 5.17158 20.0002 8.00001V16C20.0002 18.8284 20.0002 20.2426 19.1215 21.1213C18.2428 22 16.8286 22 14.0002 22H10.0002C7.17181 22 5.7576 22 4.87892 21.1213C4.00024 20.2426 4.00024 18.8284 4.00024 16V8.00001Z" stroke="black" stroke-width="1.5"/>
<path d="M19.898 16H7.89802C6.96805 16 6.50306 16 6.12156 16.1022C5.08628 16.3796 4.27764 17.1883 4.00024 18.2235" stroke="black" stroke-width="1.5"/>
<path d="M7.00024 16V2.49999" stroke="black" stroke-width="1.5" stroke-linecap="round"/>
<path d="M13 16V19.5309C13 19.8065 13 19.9443 12.9051 20C12.8103 20.0557 12.6806 19.9941 12.4211 19.8708L11.1789 19.2808C11.0911 19.2391 11.0472 19.2182 11 19.2182C10.9528 19.2182 10.9089 19.2391 10.8211 19.2808L9.57889 19.8708C9.31943 19.9941 9.18971 20.0557 9.09485 20C9 19.9443 9 19.8065 9 19.5309V16.45" stroke="black" stroke-width="1.5" stroke-linecap="round"/>
</svg>