<svg width="40" height="40" viewBox="0 0 40 40" fill="none" xmlns="http://www.w3.org/2000/svg">
<path d="M6.66675 9.99992V31.6666C6.66675 34.4281 8.90533 36.6666 11.6667 36.6666H28.3334C31.0949 36.6666 33.3334 34.4281 33.3334 31.6666V14.9999C33.3334 12.2385 31.0949 9.99992 28.3334 9.99992H6.66675ZM6.66675 9.99992V8.33325" stroke="black" stroke-width="3"/>
<path d="M30.0001 10V11.25H31.2501V10H30.0001ZM8.45187 11.25H30.0001V8.75002H8.45187V11.25ZM31.2501 10V7.17672H28.7501V10H31.2501ZM26.0186 2.63946L8.02263 5.2103L8.37618 7.68517L26.3721 5.11432L26.0186 2.63946ZM8.02263 5.2103C6.52738 5.42391 5.41675 6.70449 5.41675 8.2149H7.91675C7.91675 7.9486 8.11256 7.72284 8.37618 7.68517L8.02263 5.2103ZM31.2501 7.17672C31.2501 4.38754 28.7797 2.24501 26.0186 2.63946L26.3721 5.11432C27.6272 4.93504 28.7501 5.9089 28.7501 7.17672H31.2501ZM8.45187 8.75002C8.15633 8.75002 7.91675 8.51044 7.91675 8.2149H5.41675C5.41675 9.89115 6.77562 11.25 8.45187 11.25V8.75002Z" fill="black"/>
<path d="M13.3333 20H26.6666" stroke="black" stroke-width="3" stroke-linecap="round"/>
<path d="M13.3333 25.8333H22.4999" stroke="black" stroke-width="3" stroke-linecap="round"/>
</svg>
