<svg width="36" height="36" viewBox="0 0 36 36" fill="none" xmlns="http://www.w3.org/2000/svg">
<path d="M21 31.8751H15V34.1251H21V31.8751ZM4.125 21.0001V15.0001H1.875V21.0001H4.125ZM31.875 20.3444V21.0001H34.125V20.3444H31.875ZM22.3368 6.91676L28.275 12.2611L29.7801 10.5887L23.8421 5.24435L22.3368 6.91676ZM34.125 20.3444C34.125 17.8118 34.1477 16.2083 33.5086 14.7735L31.4534 15.6889C31.8524 16.5848 31.875 17.6131 31.875 20.3444H34.125ZM28.275 12.2611C30.3051 14.0882 31.0544 14.7931 31.4534 15.6889L33.5086 14.7735C32.8696 13.3387 31.6626 12.2829 29.7801 10.5887L28.275 12.2611ZM15.0447 4.12508C17.4174 4.12508 18.3128 4.14245 19.1108 4.44867L19.9169 2.34803C18.6392 1.85771 17.247 1.87508 15.0447 1.87508V4.12508ZM23.8421 5.24435C22.2131 3.77825 21.1946 2.83829 19.9169 2.34803L19.1108 4.44867C19.9091 4.75497 20.5823 5.33762 22.3368 6.91676L23.8421 5.24435ZM15 31.8751C12.1398 31.8751 10.1078 31.8727 8.56628 31.6654C7.05714 31.4626 6.18767 31.082 5.55285 30.4472L3.96186 32.0383C5.08442 33.1607 6.50783 33.6589 8.26647 33.8954C9.99273 34.1275 12.2034 34.1251 15 34.1251V31.8751ZM1.875 21.0001C1.875 23.7967 1.87262 26.0074 2.1047 27.7336C2.34114 29.4922 2.83932 30.9157 3.96186 32.0383L5.55285 30.4472C4.91804 29.8124 4.53753 28.9429 4.33464 27.4339C4.12739 25.8923 4.125 23.8603 4.125 21.0001H1.875ZM21 34.1251C23.7966 34.1251 26.0073 34.1275 27.7335 33.8954C29.4921 33.6589 30.9156 33.1607 32.0382 32.0383L30.4471 30.4472C29.8123 31.082 28.9428 31.4626 27.4338 31.6654C25.8923 31.8727 23.8602 31.8751 21 31.8751V34.1251ZM31.875 21.0001C31.875 23.8603 31.8726 25.8923 31.6653 27.4339C31.4625 28.9429 31.0819 29.8124 30.4471 30.4472L32.0382 32.0383C33.1607 30.9157 33.6588 29.4922 33.8954 27.7336C34.1274 26.0074 34.125 23.7967 34.125 21.0001H31.875ZM4.125 15.0001C4.125 12.1398 4.12739 10.1078 4.33464 8.56635C4.53753 7.05722 4.91804 6.18774 5.55285 5.55293L3.96186 3.96194C2.83932 5.08449 2.34114 6.5079 2.1047 8.26655C1.87262 9.99281 1.875 12.2034 1.875 15.0001H4.125ZM15.0447 1.87508C12.2331 1.87508 10.0116 1.87271 8.27831 2.10468C6.51348 2.34089 5.08529 2.83853 3.96186 3.96194L5.55285 5.55293C6.1868 4.919 7.05894 4.53795 8.57678 4.33481C10.1261 4.12745 12.1697 4.12508 15.0447 4.12508V1.87508Z" fill="black"/>
<path d="M19.5 3.75V7.5C19.5 11.0355 19.5 12.8033 20.5983 13.9017C21.6967 15 23.4645 15 27 15H33" stroke="black" stroke-width="1.5"/>
<path d="M12.75 20.25V27.75M12.75 27.75L15.75 24.9375M12.75 27.75L9.75 24.9375" stroke="black" stroke-width="1.5" stroke-linecap="round" stroke-linejoin="round"/>
</svg>
