<svg width="136" height="52" viewBox="0 0 136 52" fill="none" xmlns="http://www.w3.org/2000/svg">
<g clip-path="url(#clip0_1154_1937)">
<mask id="mask0_1154_1937" style="mask-type:luminance" maskUnits="userSpaceOnUse" x="0" y="6" width="136" height="40">
<path d="M0.8125 6.09362H135.812V45.9062H0.8125V6.09362Z" fill="white"/>
</mask>
<g mask="url(#mask0_1154_1937)">
<path d="M130.812 45.906H5.81247C3.06253 45.906 0.8125 43.6667 0.8125 40.9294V11.0699C0.8125 8.33266 3.06253 6.09333 5.81247 6.09333H130.812C133.562 6.09333 135.812 8.33266 135.812 11.0699V40.9294C135.812 43.6667 133.562 45.906 130.812 45.906Z" fill="#100F0D"/>
<path d="M130.812 6.09362H5.81247C3.06253 6.09362 0.8125 8.33294 0.8125 11.0702V40.9297C0.8125 43.6669 3.06253 45.9062 5.81247 45.9062H130.812C133.562 45.9062 135.812 43.6669 135.812 40.9297V11.0702C135.812 8.33294 133.562 6.09362 130.812 6.09362ZM130.812 6.88984C133.129 6.88984 135.013 8.76496 135.013 11.0702V40.9297C135.013 43.2349 133.129 45.1101 130.812 45.1101H5.81247C3.49649 45.1101 1.6125 43.2349 1.6125 40.9297V11.0702C1.6125 8.76496 3.49649 6.88984 5.81247 6.88984H130.812Z" fill="#A2A2A1"/>
<path d="M107.749 35.953H109.615V23.5106H107.749V35.953ZM124.556 27.9924L122.417 33.3871H122.353L120.133 27.9924H118.123L121.452 35.532L119.554 39.7263H121.5L126.631 27.9924H124.556ZM113.974 34.5396C113.362 34.5396 112.51 34.2351 112.51 33.4826C112.51 32.5222 113.571 32.1548 114.488 32.1548C115.308 32.1548 115.694 32.3311 116.193 32.5708C116.048 33.7234 115.051 34.5396 113.974 34.5396ZM114.199 27.7207C112.848 27.7207 111.448 28.3129 110.869 29.6248L112.526 30.3135C112.88 29.6248 113.539 29.4008 114.231 29.4008C115.196 29.4008 116.177 29.9771 116.193 31.0013V31.1297C115.855 30.9377 115.131 30.65 114.247 30.65C112.462 30.65 110.644 31.6264 110.644 33.4507C110.644 35.116 112.108 36.188 113.748 36.188C115.003 36.188 115.694 35.6285 116.129 34.9716H116.193V35.9322H117.994V31.1615C117.994 28.9529 116.338 27.7207 114.199 27.7207ZM102.667 29.5073H100.013V25.2414H102.667C104.062 25.2414 104.853 26.392 104.853 27.3744C104.853 28.3389 104.062 29.5073 102.667 29.5073ZM102.619 23.5106H98.1476V35.953H100.013V31.2392H102.619C104.687 31.2392 106.72 29.7481 106.72 27.3744C106.72 25.0005 104.687 23.5106 102.619 23.5106ZM78.2376 34.5417C76.9486 34.5417 75.8697 33.4678 75.8697 31.9927C75.8697 30.5017 76.9486 29.4107 78.2376 29.4107C79.5107 29.4107 80.5086 30.5017 80.5086 31.9927C80.5086 33.4678 79.5107 34.5417 78.2376 34.5417ZM80.3796 28.6892H80.3157C79.8967 28.1925 79.0917 27.7426 78.0767 27.7426C75.9495 27.7426 74.0006 29.6029 74.0006 31.9927C74.0006 34.3655 75.9495 36.2099 78.0767 36.2099C79.0917 36.2099 79.8967 35.761 80.3157 35.2475H80.3796V35.8564C80.3796 37.4768 79.5107 38.3419 78.1087 38.3419C76.9645 38.3419 76.2556 37.5246 75.9656 36.8348L74.3387 37.5088C74.8055 38.6314 76.0467 40.01 78.1087 40.01C80.2996 40.01 82.1526 38.7271 82.1526 35.6006V27.9995H80.3796V28.6892ZM83.4405 35.953H85.3096V23.5096H83.4405V35.953ZM88.0646 31.8483C88.0165 30.212 89.3377 29.3789 90.2875 29.3789C91.0296 29.3789 91.6576 29.7473 91.8665 30.2766L88.0646 31.8483ZM93.8646 30.437C93.5095 29.4904 92.4306 27.7426 90.2235 27.7426C88.0326 27.7426 86.2126 29.4586 86.2126 31.9767C86.2126 34.3495 88.0165 36.2099 90.4325 36.2099C92.3825 36.2099 93.5095 35.0234 93.9776 34.3337L92.5275 33.3712C92.0435 34.0768 91.3836 34.5417 90.4325 34.5417C89.4825 34.5417 88.8056 34.1087 88.3705 33.2598L94.0577 30.9177L93.8646 30.437ZM48.5566 29.0426V30.838H52.8737C52.7445 31.8483 52.4066 32.5859 51.8915 33.0984C51.2627 33.7244 50.2796 34.4134 48.5566 34.4134C45.8976 34.4134 43.8195 32.2814 43.8195 29.6348C43.8195 26.9892 45.8976 24.8572 48.5566 24.8572C49.9906 24.8572 51.0376 25.4176 51.8106 26.1391L53.0835 24.8732C52.0035 23.847 50.5705 23.0607 48.5566 23.0607C44.9156 23.0607 41.8547 26.0118 41.8547 29.6348C41.8547 33.2598 44.9156 36.2099 48.5566 36.2099C50.5216 36.2099 52.0035 35.5678 53.1635 34.3655C54.3556 33.1791 54.7267 31.512 54.7267 30.1643C54.7267 29.7473 54.6945 29.3631 54.6295 29.0426H48.5566ZM59.6346 34.5417C58.3466 34.5417 57.2346 33.4836 57.2346 31.9767C57.2346 30.4528 58.3466 29.4107 59.6346 29.4107C60.9235 29.4107 62.0355 30.4528 62.0355 31.9767C62.0355 33.4836 60.9235 34.5417 59.6346 34.5417ZM59.6346 27.7426C57.2825 27.7426 55.3655 29.5233 55.3655 31.9767C55.3655 34.4134 57.2825 36.2099 59.6346 36.2099C61.9866 36.2099 63.9046 34.4134 63.9046 31.9767C63.9046 29.5233 61.9866 27.7426 59.6346 27.7426ZM68.9485 34.5417C67.6595 34.5417 66.5476 33.4836 66.5476 31.9767C66.5476 30.4528 67.6595 29.4107 68.9485 29.4107C70.2377 29.4107 71.3486 30.4528 71.3486 31.9767C71.3486 33.4836 70.2377 34.5417 68.9485 34.5417ZM68.9485 27.7426C66.5967 27.7426 64.6795 29.5233 64.6795 31.9767C64.6795 34.4134 66.5967 36.2099 68.9485 36.2099C71.3006 36.2099 73.2175 34.4134 73.2175 31.9767C73.2175 29.5233 71.3006 27.7426 68.9485 27.7426Z" fill="white"/>
<path d="M21.5297 25.4266L10.8827 36.6738C10.8837 36.6757 10.8837 36.6788 10.8847 36.6806C11.2117 37.902 12.3317 38.8008 13.6617 38.8008C14.1937 38.8008 14.6927 38.6574 15.1208 38.4066L15.1547 38.3867L27.1388 31.5041L21.5297 25.4266Z" fill="#EB3131"/>
<path d="M32.3005 23.5116L32.2907 23.5045L27.1166 20.5195L21.2876 25.6823L27.1375 31.5029L32.2836 28.5479C33.1855 28.062 33.7987 27.1156 33.7987 26.0246C33.7987 24.9397 33.1945 23.9981 32.3005 23.5116Z" fill="#F6B60B"/>
<path d="M10.8824 15.3272C10.8185 15.562 10.7845 15.8089 10.7845 16.0637V35.9383C10.7845 36.1931 10.8185 36.4398 10.8835 36.6738L21.8955 25.7143L10.8824 15.3272Z" fill="#5778C5"/>
<path d="M21.6083 26.0007L27.1183 20.5174L15.1483 13.61C14.7133 13.3502 14.2053 13.2008 13.6623 13.2008C12.3323 13.2008 11.2103 14.1017 10.8833 15.3239C10.8833 15.3249 10.8823 15.326 10.8823 15.327L21.6083 26.0007Z" fill="#3BAD49"/>
</g>
<mask id="mask1_1154_1937" style="mask-type:luminance" maskUnits="userSpaceOnUse" x="0" y="6" width="136" height="40">
<path d="M0.8125 6.09341H135.812V45.9062H0.8125V6.09341Z" fill="white"/>
</mask>
<g mask="url(#mask1_1154_1937)">
<path d="M43.8797 18.8796C43.3838 18.597 42.9937 18.2074 42.7097 17.7107C42.4252 17.2142 42.2834 16.6659 42.2834 16.0652C42.2834 15.4651 42.4252 14.9166 42.7097 14.4203C42.9937 13.9238 43.3838 13.534 43.8797 13.2512C44.3756 12.9683 44.925 12.8268 45.5284 12.8268C46.4623 12.8268 47.2305 13.1644 47.8338 13.84L47.164 14.4894C46.9494 14.2354 46.7101 14.0451 46.4462 13.918C46.1823 13.7909 45.8792 13.7273 45.5371 13.7273C45.1138 13.7273 44.728 13.824 44.38 14.0174C44.0321 14.2111 43.7564 14.485 43.5535 14.8401C43.3504 15.1951 43.249 15.6036 43.249 16.0652C43.249 16.5272 43.3504 16.9357 43.5535 17.2907C43.7564 17.6456 44.0321 17.9201 44.38 18.1132C44.728 18.3068 45.1138 18.4035 45.5371 18.4035C46.2447 18.4035 46.8391 18.1119 47.3206 17.5289L48.0079 18.187C47.7063 18.5391 47.3436 18.8135 46.9204 19.0096C46.497 19.2056 46.0331 19.304 45.5284 19.304C44.925 19.304 44.3756 19.1625 43.8797 18.8796Z" fill="white"/>
<path d="M49.0778 12.9655H50.0349V15.9702H50.0869L52.5667 12.9655H53.7672V13.0175L51.1398 16.1173L53.9064 19.1135V19.1655H52.6536L50.0869 16.3253H50.0349V19.1655H49.0778V12.9655Z" fill="white"/>
<path d="M58.3607 16.6891L57.6648 14.7882L57.4299 14.0783H57.3776L57.1427 14.7882L56.4469 16.6891H58.3607ZM56.8556 12.9655H57.9431L60.3008 19.1655H59.2482L58.6739 17.5722H56.1336L55.5593 19.1655H54.5067L56.8556 12.9655Z" fill="white"/>
<path d="M63.9028 16.4033C63.5141 16.7438 63.0355 16.9141 62.4673 16.9141C62.0901 16.9141 61.7495 16.8378 61.445 16.6845C61.1405 16.5318 60.9012 16.3109 60.7272 16.0222C60.5531 15.7335 60.4661 15.393 60.4661 15.0005V12.9655H61.4318V14.836C61.4318 15.2112 61.5422 15.5014 61.7627 15.7061C61.9829 15.911 62.2786 16.0137 62.65 16.0137C63.1547 16.0137 63.5722 15.8173 63.9028 15.4246V12.9655H64.8511V19.1655H63.9028V16.4033Z" fill="white"/>
<path d="M69.5488 16.6891L68.8529 14.7882L68.618 14.0783H68.5657L68.3308 14.7882L67.635 16.6891H69.5488ZM68.0437 12.9655H69.1312L71.4889 19.1655H70.4363L69.862 17.5722H67.3217L66.7474 19.1655H65.6948L68.0437 12.9655Z" fill="white"/>
<path d="M73.1072 13.8661H71.3585V12.9655H75.8043V13.8661H74.0643V19.1655H73.1072V13.8661Z" fill="white"/>
<path d="M79.1448 18.2736C79.3711 18.2736 79.5711 18.2216 79.7452 18.1178C79.9192 18.0138 80.0526 17.8768 80.1454 17.7064C80.2381 17.5363 80.2845 17.3557 80.2845 17.1652C80.2845 16.9749 80.2381 16.7945 80.1454 16.624C80.0526 16.4538 79.9192 16.3153 79.7452 16.2084C79.5711 16.1015 79.3711 16.0482 79.1448 16.0482H77.753V18.2736H79.1448ZM76.7958 12.9655H77.753V15.1736H79.0752C79.4639 15.1736 79.8235 15.2528 80.1541 15.4117C80.4847 15.5707 80.7485 15.8013 80.9457 16.1044C81.143 16.4074 81.2414 16.761 81.2414 17.1652C81.2414 17.5693 81.143 17.9229 80.9457 18.226C80.7485 18.529 80.4847 18.7616 80.1541 18.923C79.8235 19.0846 79.4639 19.1655 79.0752 19.1655H76.7958V12.9655Z" fill="white"/>
<path d="M84.3215 12.9655H85.2696V16.3945L85.2176 17.5895H85.2696L88.0624 12.9655H89.1499V19.1655H88.2016V15.6497L88.2538 14.4549H88.2016L85.3653 19.1655H84.3215V12.9655Z" fill="white"/>
<path d="M91.0246 18.9056C90.6332 18.64 90.3649 18.2475 90.2198 17.7279L91.0984 17.3816C91.1738 17.7049 91.3203 17.9588 91.5379 18.1437C91.7554 18.3284 92.0122 18.4208 92.3079 18.4208C92.6268 18.4208 92.8996 18.3212 93.1257 18.1219C93.352 17.9228 93.4651 17.6761 93.4651 17.3816C93.4651 17.1911 93.4097 17.0166 93.2998 16.8577C93.1894 16.699 93.0387 16.5735 92.8473 16.4812C92.6559 16.3888 92.4471 16.3427 92.221 16.3427H91.7076V15.5111H92.1688C92.482 15.5111 92.7428 15.426 92.9518 15.2557C93.1606 15.0855 93.2649 14.8561 93.2649 14.5674C93.2649 14.3134 93.1677 14.1027 92.9733 13.9351C92.779 13.7678 92.5368 13.684 92.2471 13.684C91.9861 13.684 91.7654 13.762 91.5857 13.918C91.4058 14.0736 91.2812 14.2585 91.2116 14.4719L90.3676 14.1256C90.4894 13.7853 90.7114 13.4837 91.0334 13.2208C91.3552 12.9581 91.7625 12.8268 92.2557 12.8268C92.6325 12.8268 92.9677 12.9005 93.2605 13.0477C93.5535 13.1948 93.7825 13.397 93.9478 13.6538C94.1131 13.9107 94.1959 14.2009 94.1959 14.5239C94.1959 15.1244 93.9317 15.5689 93.404 15.8576V15.9096C93.7 16.0423 93.9405 16.2357 94.1263 16.4897C94.3116 16.7437 94.4046 17.0526 94.4046 17.4164C94.4046 17.7685 94.3131 18.0888 94.1304 18.3775C93.9478 18.666 93.6968 18.8925 93.3781 19.0571C93.0588 19.2216 92.7021 19.304 92.3079 19.304C91.8438 19.304 91.416 19.171 91.0246 18.9056Z" fill="white"/>
</g>
</g>
<defs>
<clipPath id="clip0_1154_1937">
<rect width="135" height="52" fill="white" transform="translate(0.8125)"/>
</clipPath>
</defs>
</svg>
