<svg xmlns="http://www.w3.org/2000/svg" width="65" height="65" viewBox="0 0 65 65" fill="none">
  <path fill-rule="evenodd" clip-rule="evenodd" d="M32.5 8.5C25.9816 8.5 25.1656 8.5272 22.6056 8.644C20.0504 8.7608 18.3048 9.1672 16.7784 9.7608C15.1784 10.3624 13.7272 11.3064 12.5272 12.5288C11.3068 13.7274 10.3622 15.1776 9.7592 16.7784C9.1688 18.3048 8.7608 20.052 8.644 22.6072C8.5288 25.1656 8.5 25.98 8.5 32.5C8.5 39.02 8.5272 39.8344 8.644 42.3944C8.7608 44.9496 9.1672 46.6952 9.7608 48.2216C10.3624 49.8216 11.3064 51.2728 12.5288 52.4728C13.7274 53.6932 15.1776 54.6378 16.7784 55.2408C18.3048 55.8328 20.0504 56.2392 22.6056 56.356C25.1656 56.4728 25.9816 56.5 32.5 56.5C39.0184 56.5 39.8344 56.4728 42.3944 56.356C44.9496 56.2392 46.6952 55.8328 48.2216 55.2392C49.8216 54.6376 51.2728 53.6936 52.4728 52.4712C53.6932 51.2726 54.6378 49.8224 55.2408 48.2216C55.8328 46.6952 56.2392 44.9496 56.356 42.3944C56.4728 39.8344 56.5 39.0184 56.5 32.5C56.5 25.9816 56.4728 25.1656 56.356 22.6056C56.2392 20.0504 55.8328 18.3048 55.2392 16.7784C54.6367 15.1769 53.692 13.7261 52.4712 12.5272C51.2726 11.3068 49.8224 10.3622 48.2216 9.7592C46.6952 9.1688 44.948 8.7608 42.3928 8.644C39.8344 8.5288 39.02 8.5 32.5 8.5ZM32.5 12.8248C38.908 12.8248 39.668 12.8488 42.1992 12.964C44.5384 13.0712 45.8088 13.46 46.6552 13.7912C47.7752 14.2248 48.5752 14.7464 49.4152 15.5848C50.2552 16.4248 50.7752 17.2248 51.2088 18.3448C51.5384 19.1912 51.9288 20.4616 52.036 22.8008C52.1512 25.332 52.1752 26.092 52.1752 32.5C52.1752 38.908 52.1512 39.668 52.036 42.1992C51.9288 44.5384 51.54 45.8088 51.2088 46.6552C50.8247 47.6977 50.2118 48.6408 49.4152 49.4152C48.6409 50.212 47.6978 50.8249 46.6552 51.2088C45.8088 51.5384 44.5384 51.9288 42.1992 52.036C39.668 52.1512 38.9096 52.1752 32.5 52.1752C26.0904 52.1752 25.332 52.1512 22.8008 52.036C20.4616 51.9288 19.1912 51.54 18.3448 51.2088C17.3023 50.8247 16.3592 50.2118 15.5848 49.4152C14.7883 48.6407 14.1754 47.6976 13.7912 46.6552C13.4616 45.8088 13.0712 44.5384 12.964 42.1992C12.8488 39.668 12.8248 38.908 12.8248 32.5C12.8248 26.092 12.8488 25.332 12.964 22.8008C13.0712 20.4616 13.46 19.1912 13.7912 18.3448C14.2248 17.2248 14.7464 16.4248 15.5848 15.5848C16.3591 14.7881 17.3023 14.1752 18.3448 13.7912C19.1912 13.4616 20.4616 13.0712 22.8008 12.964C25.332 12.8488 26.092 12.8248 32.5 12.8248Z" fill="#808080"/>
  <path fill-rule="evenodd" clip-rule="evenodd" d="M32.5 40.5079C31.4484 40.5079 30.407 40.3008 29.4355 39.8984C28.4639 39.4959 27.5811 38.906 26.8375 38.1624C26.0939 37.4188 25.504 36.536 25.1016 35.5645C24.6991 34.5929 24.492 33.5516 24.492 32.4999C24.492 31.4483 24.6991 30.407 25.1016 29.4354C25.504 28.4638 26.0939 27.581 26.8375 26.8374C27.5811 26.0938 28.4639 25.5039 29.4355 25.1015C30.407 24.6991 31.4484 24.4919 32.5 24.4919C34.6239 24.4919 36.6607 25.3356 38.1625 26.8374C39.6643 28.3392 40.508 30.3761 40.508 32.4999C40.508 34.6238 39.6643 36.6606 38.1625 38.1624C36.6607 39.6642 34.6239 40.5079 32.5 40.5079ZM32.5 20.1639C29.2283 20.1639 26.0906 21.4636 23.7771 23.7771C21.4637 26.0905 20.164 29.2282 20.164 32.4999C20.164 35.7716 21.4637 38.9093 23.7771 41.2228C26.0906 43.5362 29.2283 44.8359 32.5 44.8359C35.7717 44.8359 38.9094 43.5362 41.2229 41.2228C43.5363 38.9093 44.836 35.7716 44.836 32.4999C44.836 29.2282 43.5363 26.0905 41.2229 23.7771C38.9094 21.4636 35.7717 20.1639 32.5 20.1639ZM48.4248 19.9399C48.4248 20.7133 48.1176 21.455 47.5707 22.0018C47.0239 22.5487 46.2822 22.8559 45.5088 22.8559C44.7354 22.8559 43.9937 22.5487 43.4469 22.0018C42.9 21.455 42.5928 20.7133 42.5928 19.9399C42.5928 19.1666 42.9 18.4249 43.4469 17.878C43.9937 17.3311 44.7354 17.0239 45.5088 17.0239C46.2822 17.0239 47.0239 17.3311 47.5707 17.878C48.1176 18.4249 48.4248 19.1666 48.4248 19.9399Z" fill="#808080"/>
</svg>