<svg xmlns="http://www.w3.org/2000/svg" width="30" height="30" viewBox="0 0 30 30" fill="none">
<path d="M22.5 10L23.6859 10.3953C24.9234 10.8078 25.5421 11.0141 25.8961 11.5051C26.25 11.9961 26.25 12.6484 26.25 13.9529V21.0363C26.25 22.6499 26.25 23.4566 25.8254 23.975C25.6811 24.151 25.506 24.2992 25.3087 24.4126C24.7276 24.7462 23.9319 24.6136 22.3401 24.3484C20.7696 24.0866 19.9844 23.9557 19.206 24.0209C18.9329 24.0437 18.6615 24.0845 18.3938 24.143C17.6308 24.3096 16.9124 24.6688 15.4757 25.3871C13.6011 26.3245 12.6637 26.7931 11.666 26.9376C11.3655 26.9811 11.0623 27.0026 10.7586 27.002C9.75044 27.0001 8.76482 26.6716 6.7936 26.0145L6.31415 25.8547C5.07661 25.4422 4.45784 25.236 4.10392 24.7449C3.75 24.2539 3.75 23.6016 3.75 22.2971V16.135C3.75 14.0614 3.75 13.0246 4.36051 12.467C4.46735 12.3694 4.58511 12.2845 4.71146 12.214C5.43351 11.8112 6.41711 12.139 8.38432 12.7947" stroke="black" stroke-width="2"/>
<path d="M7.5 9.62539C7.5 5.69014 10.8579 2.5 15 2.5C19.1421 2.5 22.5 5.69014 22.5 9.62539C22.5 13.5298 20.1063 18.0859 16.3715 19.7151C15.5009 20.095 14.4991 20.095 13.6285 19.7151C9.89374 18.0859 7.5 13.5298 7.5 9.62539Z" stroke="black" stroke-width="2"/>
<path d="M15 12.5C16.3807 12.5 17.5 11.3807 17.5 10C17.5 8.61929 16.3807 7.5 15 7.5C13.6193 7.5 12.5 8.61929 12.5 10C12.5 11.3807 13.6193 12.5 15 12.5Z" stroke="black" stroke-width="2"/>
</svg>