<svg width="40" height="40" viewBox="0 0 40 40" fill="none" xmlns="http://www.w3.org/2000/svg">
<path d="M8.3335 14.1911C8.3335 8.19451 13.5568 3.33334 20.0002 3.33334C26.4435 3.33334 31.6668 8.19451 31.6668 14.1911C31.6668 20.1407 27.9432 27.0832 22.1337 29.566C20.7793 30.1447 19.221 30.1447 17.8667 29.566C12.0571 27.0832 8.3335 20.1407 8.3335 14.1911Z" stroke="black" stroke-width="3"/>
<path d="M23.3332 15C23.3332 16.841 21.8408 18.3333 19.9998 18.3333C18.1588 18.3333 16.6665 16.841 16.6665 15C16.6665 13.159 18.1588 11.6667 19.9998 11.6667C21.8408 11.6667 23.3332 13.159 23.3332 15Z" stroke="black" stroke-width="3"/>
<path d="M34.9343 25.8333C36.0433 26.8375 36.6668 27.9693 36.6668 29.1667C36.6668 33.3088 29.2048 36.6667 20.0002 36.6667C10.7954 36.6667 3.3335 33.3088 3.3335 29.1667C3.3335 27.9693 3.95703 26.8375 5.06595 25.8333" stroke="black" stroke-width="3" stroke-linecap="round"/>
</svg>
