<svg width="29" height="29" viewBox="0 0 29 29" fill="none" xmlns="http://www.w3.org/2000/svg">
<rect x="0.5" y="0.5" width="27.3135" height="27.7502" rx="13.6568" fill="#245DFF"/>
<path fill-rule="evenodd" clip-rule="evenodd" d="M16.8213 5.07934C17.1918 4.8941 17.6423 5.04427 17.8276 5.41475L20.0287 9.81708C21.3818 9.92102 22.2309 10.1864 22.7788 10.8641C23.6794 11.9781 23.3201 13.6545 22.6017 17.0073L22.1731 19.0073C21.6861 21.2799 21.4426 22.4162 20.6176 23.0832C19.7925 23.7502 18.6304 23.7502 16.3063 23.7502H12.0073C9.68313 23.7502 8.52106 23.7502 7.69599 23.0832C6.87092 22.4162 6.62743 21.2799 6.14045 19.0073L5.71188 17.0073C4.99342 13.6545 4.63419 11.9781 5.53474 10.8641C6.08259 10.1864 6.93168 9.92103 8.28475 9.81708L10.4859 5.41475C10.6712 5.04427 11.1217 4.8941 11.4921 5.07934C11.8626 5.26459 12.0128 5.71509 11.8276 6.08557L9.99263 9.75543C10.4759 9.75016 11.0031 9.75016 11.5787 9.75016H16.7348C17.3104 9.75016 17.8376 9.75016 18.3208 9.75543L16.4859 6.08557C16.3007 5.71509 16.4508 5.26459 16.8213 5.07934ZM9.40674 14.7502C9.40674 14.336 9.74252 14.0002 10.1567 14.0002H18.1567C18.571 14.0002 18.9067 14.336 18.9067 14.7502C18.9067 15.1644 18.571 15.5002 18.1567 15.5002H10.1567C9.74252 15.5002 9.40674 15.1644 9.40674 14.7502ZM12.1567 17.0002C11.7425 17.0002 11.4067 17.336 11.4067 17.7502C11.4067 18.1644 11.7425 18.5002 12.1567 18.5002H16.1567C16.571 18.5002 16.9067 18.1644 16.9067 17.7502C16.9067 17.336 16.571 17.0002 16.1567 17.0002H12.1567Z" fill="white"/>
<rect x="0.5" y="0.5" width="27.3135" height="27.7502" rx="13.6568" stroke="white"/>
</svg>
