<svg xmlns="http://www.w3.org/2000/svg" width="24" height="23" viewBox="0 0 24 23" fill="none">
<path fill-rule="evenodd" clip-rule="evenodd" d="M12.3789 2.875C10.0117 2.875 9.71534 2.88478 8.78565 2.92675C7.85771 2.96872 7.22378 3.11477 6.66946 3.3281C6.0884 3.5443 5.56139 3.88355 5.1256 4.32285C4.68238 4.7536 4.33935 5.27476 4.12038 5.85005C3.90597 6.3986 3.7578 7.0265 3.71538 7.94478C3.67354 8.8642 3.66309 9.15688 3.66309 11.5C3.66309 13.8431 3.67296 14.1358 3.71538 15.0558C3.7578 15.9741 3.90539 16.6014 4.12096 17.15C4.33943 17.7249 4.68225 18.2465 5.12618 18.6777C5.56148 19.1163 6.08812 19.4558 6.66946 19.6725C7.22378 19.8852 7.85771 20.0313 8.78565 20.0732C9.71534 20.1152 10.0117 20.125 12.3789 20.125C14.7461 20.125 15.0424 20.1152 15.9721 20.0732C16.9001 20.0313 17.534 19.8852 18.0883 19.6719C18.6694 19.4557 19.1964 19.1164 19.6322 18.6771C20.0754 18.2464 20.4184 17.7252 20.6374 17.15C20.8524 16.6014 21 15.9741 21.0424 15.0558C21.0848 14.1358 21.0947 13.8425 21.0947 11.5C21.0947 9.15745 21.0848 8.8642 21.0424 7.9442C21 7.02592 20.8524 6.3986 20.6368 5.85005C20.418 5.27451 20.075 4.75313 19.6316 4.32227C19.1963 3.88368 18.6697 3.54422 18.0883 3.32752C17.534 3.11535 16.8995 2.96872 15.9715 2.92675C15.0424 2.88535 14.7467 2.875 12.3789 2.875ZM12.3789 4.42922C14.706 4.42922 14.982 4.43785 15.9012 4.47925C16.7507 4.51777 17.2121 4.6575 17.5195 4.77652C17.9262 4.93235 18.2167 5.1198 18.5218 5.4211C18.8268 5.72298 19.0157 6.01047 19.1732 6.41297C19.2928 6.71715 19.4346 7.1737 19.4736 8.01435C19.5154 8.924 19.5241 9.19712 19.5241 11.5C19.5241 13.8029 19.5154 14.076 19.4736 14.9857C19.4346 15.8263 19.2934 16.2829 19.1732 16.587C19.0337 16.9617 18.8111 17.3006 18.5218 17.5789C18.2406 17.8652 17.8981 18.0855 17.5195 18.2235C17.2121 18.3419 16.7507 18.4822 15.9012 18.5207C14.982 18.5621 14.7066 18.5708 12.3789 18.5708C10.0512 18.5708 9.77577 18.5621 8.85654 18.5207C8.00704 18.4822 7.54569 18.3425 7.23831 18.2235C6.85973 18.0854 6.51723 17.8652 6.23599 17.5789C5.94673 17.3006 5.72416 16.9616 5.58463 16.587C5.46493 16.2829 5.32316 15.8263 5.28423 14.9857C5.24239 14.076 5.23367 13.8029 5.23367 11.5C5.23367 9.19712 5.24239 8.924 5.28423 8.01435C5.32316 7.1737 5.46435 6.71715 5.58463 6.41297C5.7421 6.01047 5.93152 5.72298 6.23599 5.4211C6.51719 5.13478 6.8597 4.91451 7.23831 4.77652C7.54569 4.65807 8.00704 4.51777 8.85654 4.47925C9.77577 4.43785 10.0518 4.42922 12.3789 4.42922Z" fill="black"/>
<path fill-rule="evenodd" clip-rule="evenodd" d="M12.3788 14.3778C11.9969 14.3778 11.6188 14.3034 11.2659 14.1587C10.9131 14.0141 10.5925 13.8021 10.3225 13.5349C10.0524 13.2677 9.8382 12.9504 9.69205 12.6012C9.5459 12.2521 9.47068 11.8778 9.47068 11.4999C9.47068 11.122 9.5459 10.7478 9.69205 10.3986C9.8382 10.0494 10.0524 9.73219 10.3225 9.46496C10.5925 9.19772 10.9131 8.98574 11.2659 8.84111C11.6188 8.69648 11.9969 8.62204 12.3788 8.62204C13.1501 8.62204 13.8898 8.92525 14.4352 9.46496C14.9806 10.0047 15.287 10.7367 15.287 11.4999C15.287 12.2632 14.9806 12.9952 14.4352 13.5349C13.8898 14.0746 13.1501 14.3778 12.3788 14.3778ZM12.3788 7.06667C11.1907 7.06667 10.0512 7.53374 9.21106 8.36514C8.37092 9.19653 7.89893 10.3241 7.89893 11.4999C7.89893 12.6757 8.37092 13.8033 9.21106 14.6347C10.0512 15.4661 11.1907 15.9332 12.3788 15.9332C13.567 15.9332 14.7065 15.4661 15.5466 14.6347C16.3868 13.8033 16.8588 12.6757 16.8588 11.4999C16.8588 10.3241 16.3868 9.19653 15.5466 8.36514C14.7065 7.53374 13.567 7.06667 12.3788 7.06667ZM18.1621 6.98617C18.1621 7.2641 18.0505 7.53065 17.8519 7.72717C17.6533 7.9237 17.384 8.03411 17.1031 8.03411C16.8222 8.03411 16.5529 7.9237 16.3543 7.72717C16.1557 7.53065 16.0441 7.2641 16.0441 6.98617C16.0441 6.70824 16.1557 6.44169 16.3543 6.24517C16.5529 6.04864 16.8222 5.93823 17.1031 5.93823C17.384 5.93823 17.6533 6.04864 17.8519 6.24517C18.0505 6.44169 18.1621 6.70824 18.1621 6.98617Z" fill="black"/>
</svg>