<svg xmlns="http://www.w3.org/2000/svg" width="24" height="23" viewBox="0 0 24 23" fill="none">
<path fill-rule="evenodd" clip-rule="evenodd" d="M21.9725 11.5C21.9725 16.7927 17.6367 21.0833 12.2882 21.0833C6.93978 21.0833 2.604 16.7927 2.604 11.5C2.604 6.20726 6.93978 1.91666 12.2882 1.91666C17.6367 1.91666 21.9725 6.20726 21.9725 11.5ZM12.6352 8.99151C11.6933 9.37921 9.81077 10.1817 6.98763 11.3988C6.52919 11.5792 6.28904 11.7557 6.26718 11.9283C6.23023 12.22 6.5993 12.3348 7.10188 12.4912C7.17025 12.5125 7.24108 12.5345 7.3137 12.5579C7.80816 12.7169 8.47329 12.903 8.81907 12.9104C9.13272 12.9171 9.48279 12.7891 9.86929 12.5265C12.507 10.7645 13.8687 9.87388 13.9541 9.85468C14.0145 9.84113 14.098 9.8241 14.1547 9.87391C14.2113 9.92371 14.2057 10.018 14.1997 10.0433C14.1632 10.1976 12.7144 11.5304 11.9647 12.2202C11.731 12.4352 11.5652 12.5877 11.5313 12.6226C11.4554 12.7006 11.378 12.7744 11.3036 12.8454C10.8443 13.2836 10.4998 13.6122 11.3227 14.1488C11.7182 14.4067 12.0346 14.62 12.3503 14.8327C12.6951 15.0651 13.039 15.2968 13.4839 15.5854C13.5973 15.659 13.7055 15.7353 13.811 15.8097C14.2122 16.0928 14.5727 16.3471 15.018 16.3066C15.2768 16.283 15.5441 16.0422 15.6798 15.324C16.0007 13.6268 16.6313 9.94946 16.777 8.43411C16.7898 8.30135 16.7737 8.13143 16.7608 8.05685C16.7479 7.98226 16.721 7.87599 16.623 7.79732C16.507 7.70415 16.3279 7.6845 16.2477 7.6859C15.8835 7.69225 15.3247 7.88454 12.6352 8.99151Z" fill="black"/>
</svg>