<svg xmlns="http://www.w3.org/2000/svg" width="24" height="23" viewBox="0 0 24 23" fill="none">
<path fill-rule="evenodd" clip-rule="evenodd" d="M19.7429 5.18911C20.5758 5.41055 21.2347 6.06256 21.4585 6.8868C21.8687 8.38766 21.8811 11.5001 21.8811 11.5001C21.8811 11.5001 21.8811 14.6248 21.4709 16.1134C21.2471 16.9376 20.5883 17.5896 19.7553 17.8111C18.2511 18.217 12.1969 18.217 12.1969 18.217C12.1969 18.217 6.14273 18.217 4.6385 17.8111C3.80558 17.5896 3.14671 16.9376 2.92294 16.1134C2.5127 14.6125 2.5127 11.5001 2.5127 11.5001C2.5127 11.5001 2.5127 8.38766 2.91051 6.8991C3.13428 6.07486 3.79315 5.42285 4.62607 5.20142C6.1303 4.79544 12.1845 4.78314 12.1845 4.78314C12.1845 4.78314 18.2387 4.78314 19.7429 5.18911ZM15.28 11.5001L10.2576 14.3788V8.6214L15.28 11.5001Z" fill="black"/>
</svg>