<svg xmlns="http://www.w3.org/2000/svg" width="24" height="24" viewBox="0 0 24 24" fill="none">
<path d="M2.75 16.1437V4.99793H1.25V16.1437H2.75ZM22.75 16.1437V4.93333H21.25V16.1437H22.75ZM20.0559 2.26833C18.9175 2.30799 17.4296 2.4264 16.2849 2.76908L16.7151 4.20607C17.6643 3.92192 18.9892 3.8064 20.1081 3.76742L20.0559 2.26833ZM16.2849 2.76908C15.2899 3.06697 14.1706 3.64881 13.2982 4.15376L14.0495 5.45201C14.9 4.95982 15.8949 4.45162 16.7151 4.20607L16.2849 2.76908ZM3.93639 3.82361C4.90238 3.88298 5.99643 3.99843 6.80864 4.21275L7.19136 2.7624C6.23055 2.50886 5.01517 2.38708 4.02841 2.32643L3.93639 3.82361ZM6.80864 4.21275C7.77076 4.46664 8.95486 5.02209 9.93167 5.53861L10.6328 4.21258C9.63736 3.68619 8.32766 3.06225 7.19136 2.7624L6.80864 4.21275ZM13.9804 20.7312C14.9714 20.2029 16.1988 19.6206 17.1914 19.3587L16.8086 17.9083C15.6383 18.2171 14.2827 18.8702 13.2748 19.4075L13.9804 20.7312ZM17.1914 19.3587C17.9943 19.1468 19.0732 19.0314 20.032 18.9715L19.9383 17.4744C18.9582 17.5357 17.7591 17.6575 16.8086 17.9083L17.1914 19.3587ZM10.7252 19.4075C9.71727 18.8702 8.3617 18.2171 7.19136 17.9083L6.80864 19.3587C7.8012 19.6206 9.0286 20.2029 10.0196 20.7312L10.7252 19.4075ZM7.19136 17.9083C6.24092 17.6575 5.04176 17.5357 4.06168 17.4744L3.96804 18.9715C4.9268 19.0314 6.00566 19.1468 6.80864 19.3587L7.19136 17.9083ZM21.25 16.1437C21.25 16.8295 20.6817 17.4279 19.9383 17.4744L20.032 18.9715C21.5062 18.8793 22.75 17.6799 22.75 16.1437H21.25ZM22.75 4.93333C22.75 3.47002 21.5847 2.21508 20.0559 2.26833L20.1081 3.76742C20.7229 3.74601 21.25 4.25174 21.25 4.93333H22.75ZM1.25 16.1437C1.25 17.6799 2.49378 18.8793 3.96804 18.9715L4.06168 17.4744C3.31831 17.4279 2.75 16.8295 2.75 16.1437H1.25ZM13.2748 19.4075C12.4825 19.8299 11.5175 19.8299 10.7252 19.4075L10.0196 20.7312C11.2529 21.3886 12.7471 21.3886 13.9804 20.7312L13.2748 19.4075ZM13.2982 4.15376C12.4801 4.62722 11.4617 4.65084 10.6328 4.21258L9.93167 5.53861C11.2239 6.2219 12.791 6.18038 14.0495 5.45201L13.2982 4.15376ZM2.75 4.99793C2.75 4.30075 3.30243 3.78464 3.93639 3.82361L4.02841 2.32643C2.47017 2.23066 1.25 3.49878 1.25 4.99793H2.75Z" fill="black"/>
<path d="M12 5.854V20.9999V5.854Z" fill="black"/>
<path d="M12 5.854V20.9999" stroke="black" stroke-width="1.5"/>
<path d="M5 9L9 10L5 9Z" fill="black"/>
<path d="M5 9L9 10" stroke="black" stroke-width="1.5" stroke-linecap="round"/>
<path d="M19 9L15 10L19 9Z" fill="black"/>
<path d="M19 9L15 10" stroke="black" stroke-width="1.5" stroke-linecap="round"/>
<path d="M5 13L9 14L5 13Z" fill="black"/>
<path d="M5 13L9 14" stroke="black" stroke-width="1.5" stroke-linecap="round"/>
<path d="M19 13L15 14L19 13Z" fill="black"/>
<path d="M19 13L15 14" stroke="black" stroke-width="1.5" stroke-linecap="round"/>
</svg>