<svg xmlns="http://www.w3.org/2000/svg" width="30" height="30" viewBox="0 0 30 30" fill="none">
<path d="M23.75 6.25L18.75 11.25M18.75 11.25V7.5M18.75 11.25H22.5" stroke="black" stroke-width="1.5" stroke-linecap="round" stroke-linejoin="round"/>
<path d="M19.5557 19.4296L20.125 18.8302L18.7655 17.539L18.1962 18.1384L19.5557 19.4296ZM21.9984 18.5779L24.3865 19.9525L25.3219 18.3275L22.9338 16.9529L21.9984 18.5779ZM24.8474 22.8024L23.0717 24.6719L24.4312 25.9631L26.2069 24.0936L24.8474 22.8024ZM22.0033 25.2709C20.2095 25.448 15.5292 25.2969 10.449 19.9484L9.08951 21.2396C14.6262 27.0687 19.9077 27.3619 22.1874 27.1369L22.0033 25.2709ZM10.449 19.9484C5.60383 14.8472 4.79111 10.5444 4.68981 8.65718L2.81751 8.75766C2.94157 11.0692 3.92304 15.8004 9.08951 21.2396L10.449 19.9484ZM12.1682 11.652L12.5267 11.2745L11.1672 9.98325L10.8087 10.3607L12.1682 11.652ZM12.8083 6.57515L11.2321 4.34579L9.70112 5.42825L11.2774 7.6576L12.8083 6.57515ZM5.89712 3.86516L3.93512 5.93077L5.29459 7.22206L7.25659 5.15645L5.89712 3.86516ZM11.4884 11.0063C10.8087 10.3607 10.8078 10.3616 10.8069 10.3625C10.8066 10.3629 10.8058 10.3638 10.8052 10.3644C10.804 10.3657 10.8028 10.367 10.8016 10.3683C10.7991 10.3709 10.7965 10.3737 10.7939 10.3766C10.7887 10.3823 10.7831 10.3886 10.7773 10.3953C10.7656 10.4088 10.7527 10.4241 10.739 10.4415C10.7115 10.4762 10.6804 10.5189 10.6478 10.5699C10.5824 10.6721 10.5115 10.8066 10.4514 10.9754C10.3293 11.3186 10.2628 11.7731 10.3459 12.3407C10.5093 13.4559 11.24 14.9555 13.1492 16.9655L14.5087 15.6742C12.7242 13.7954 12.2846 12.6383 12.2011 12.0689C12.1609 11.7942 12.2018 11.6495 12.2179 11.604C12.227 11.5785 12.233 11.5714 12.2272 11.5805C12.2243 11.5849 12.2187 11.5931 12.2093 11.6051C12.2045 11.6111 12.1988 11.618 12.192 11.6258C12.1886 11.6297 12.185 11.6338 12.181 11.6382C12.179 11.6404 12.1769 11.6426 12.1748 11.6449C12.1737 11.6461 12.1727 11.6472 12.1715 11.6484C12.171 11.649 12.1701 11.6499 12.1699 11.6502C12.169 11.6511 12.1682 11.652 11.4884 11.0063ZM13.1492 16.9655C15.0528 18.9696 16.4904 19.7575 17.5873 19.9356C18.1502 20.027 18.6058 19.954 18.9508 19.818C19.1194 19.7515 19.2528 19.6734 19.3529 19.6024C19.4029 19.5669 19.4445 19.5332 19.478 19.5039C19.4949 19.4891 19.5097 19.4754 19.5225 19.4629C19.529 19.4567 19.535 19.4508 19.5405 19.4452C19.5433 19.4425 19.5459 19.4397 19.5484 19.4371C19.5497 19.4359 19.5509 19.4346 19.5522 19.4334C19.5528 19.4327 19.5537 19.4317 19.5539 19.4315C19.5548 19.4305 19.5557 19.4296 18.8759 18.784C18.1962 18.1384 18.197 18.1375 18.1979 18.1366C18.1982 18.1363 18.199 18.1354 18.1995 18.1348C18.2007 18.1336 18.2018 18.1325 18.2029 18.1314C18.2052 18.1291 18.2073 18.1269 18.2093 18.1247C18.2135 18.1206 18.2175 18.1166 18.2213 18.113C18.2288 18.1058 18.2357 18.0995 18.2417 18.0942C18.2535 18.0837 18.2624 18.077 18.2682 18.073C18.2799 18.0646 18.2787 18.0675 18.2628 18.0737C18.2387 18.0832 18.125 18.1234 17.8879 18.0849C17.3847 18.0031 16.2989 17.559 14.5087 15.6742L13.1492 16.9655ZM11.2321 4.34579C9.96512 2.55381 7.42984 2.25149 5.89712 3.86516L7.25659 5.15645C7.91014 4.46839 9.06068 4.52244 9.70112 5.42825L11.2321 4.34579ZM4.68981 8.65718C4.66302 8.15805 4.88036 7.65817 5.29459 7.22206L3.93512 5.93077C3.26531 6.63596 2.75621 7.61558 2.81751 8.75766L4.68981 8.65718ZM23.0717 24.6719C22.7229 25.0391 22.358 25.2359 22.0033 25.2709L22.1874 27.1369C23.1213 27.0446 23.877 26.5466 24.4312 25.9631L23.0717 24.6719ZM12.5267 11.2745C13.7362 10.0012 13.8218 8.00847 12.8083 6.57515L11.2774 7.6576C11.805 8.40394 11.7241 9.39691 11.1672 9.98325L12.5267 11.2745ZM24.3865 19.9525C25.4125 20.5431 25.6134 21.996 24.8474 22.8024L26.2069 24.0936C27.838 22.3763 27.363 19.5024 25.3219 18.3275L24.3865 19.9525ZM20.125 18.8302C20.6068 18.323 21.3575 18.209 21.9984 18.5779L22.9338 16.9529C21.5607 16.1625 19.8577 16.3891 18.7655 17.539L20.125 18.8302Z" fill="black"/>
</svg>