<svg xmlns="http://www.w3.org/2000/svg" width="65" height="65" viewBox="0 0 65 65" fill="none">
  <path fill-rule="evenodd" clip-rule="evenodd" d="M59.1666 32.4999C59.1666 47.2275 47.2276 59.1666 32.5 59.1666C17.7724 59.1666 5.83331 47.2275 5.83331 32.4999C5.83331 17.7723 17.7724 5.83325 32.5 5.83325C47.2276 5.83325 59.1666 17.7723 59.1666 32.4999ZM33.4555 25.5198C30.8618 26.5986 25.678 28.8315 17.9041 32.2185C16.6418 32.7204 15.9805 33.2115 15.9203 33.6917C15.8186 34.5033 16.8348 34.8229 18.2188 35.258C18.407 35.3172 18.6021 35.3785 18.802 35.4435C20.1636 35.8861 21.9951 36.4039 22.9472 36.4245C23.8109 36.4431 24.7749 36.0871 25.8391 35.3563C33.1025 30.4533 36.8519 27.9751 37.0873 27.9217C37.2534 27.884 37.4835 27.8366 37.6394 27.9752C37.7953 28.1138 37.78 28.3762 37.7635 28.4466C37.6628 28.8758 33.6735 32.5846 31.6091 34.5039C30.9655 35.1022 30.509 35.5267 30.4157 35.6236C30.2066 35.8407 29.9935 36.0461 29.7888 36.2435C28.5239 37.4629 27.5753 38.3773 29.8413 39.8706C30.9302 40.5882 31.8016 41.1816 32.6709 41.7736C33.6203 42.4201 34.5672 43.065 35.7924 43.8681C36.1045 44.0727 36.4027 44.2853 36.693 44.4923C37.7979 45.2799 38.7905 45.9876 40.0168 45.8747C40.7294 45.8091 41.4654 45.1391 41.8392 43.1408C42.7226 38.4181 44.4591 28.1854 44.8604 23.9688C44.8956 23.5993 44.8513 23.1265 44.8158 22.919C44.7803 22.7115 44.7061 22.4157 44.4363 22.1968C44.1168 21.9376 43.6236 21.8829 43.403 21.8868C42.4 21.9045 40.8612 22.4395 33.4555 25.5198Z" fill="#808080"/>
</svg>