<svg xmlns="http://www.w3.org/2000/svg" width="65" height="65" viewBox="0 0 65 65" fill="none">
<path fill-rule="evenodd" clip-rule="evenodd" d="M53.2788 14.9392C55.5723 15.5554 57.3866 17.3697 58.0028 19.6632C59.1325 23.8395 59.1667 32.5002 59.1667 32.5002C59.1667 32.5002 59.1667 41.1951 58.037 45.3372C57.4208 47.6307 55.6066 49.445 53.313 50.0612C49.171 51.1908 32.5 51.1908 32.5 51.1908C32.5 51.1908 15.8291 51.1908 11.687 50.0612C9.39346 49.445 7.57917 47.6307 6.963 45.3372C5.83334 41.1609 5.83334 32.5002 5.83334 32.5002C5.83334 32.5002 5.83334 23.8395 6.92876 19.6975C7.54494 17.4039 9.35923 15.5896 11.6528 14.9735C15.7948 13.8438 32.4658 13.8096 32.4658 13.8096C32.4658 13.8096 49.1367 13.8096 53.2788 14.9392ZM40.9895 32.5002L27.1598 40.5105V24.4899L40.9895 32.5002Z" fill="#808080"/>
</svg>